<svg id="Livello_1" xmlns="http://www.w3.org/2000/svg" viewBox="0 0 73.8 73.8"><style>.st0{fill:#000}.st1{fill:#fff}</style><circle class="st0" cx="36.9" cy="36.9" r="36.9"/><path class="st1" d="M33 28.5c2.3.8 4.5 2.1 6.4 3.8.8-.2 2.9-.6 4-1.8 1.1-1.1 1.6-3 1.8-3.9-5.8-5-13.5-5.8-17.7-1.6-.7.7-1.3 1.6-1.7 2.5 2.2-.2 4.7.1 7.2 1zM44.8 32c-1.1 1.1-2.6 1.7-3.7 2 1.9 2.1 3.4 4.5 4.3 7 .9 2.5 1.2 4.9.9 7.2.9-.4 1.8-1 2.5-1.7 4.3-4.3 3.4-12.3-2-18.2-.3 1.2-.9 2.6-2 3.7zm6.4-6.5c-.9.9-1.9 1.3-2.8 1.5 3.2 3.6 5 7.8 5.1 11.8 3.2-3.8 2.7-10.1-1.2-14.9-.2.6-.6 1.2-1.1 1.6zm-1.4-1.4c.5-.5.8-1.2 1-1.7-4.9-4.6-11.6-5.4-15.7-2 3.9.1 8 1.8 11.5 4.9.6 0 2.1-.1 3.2-1.2z"/><path class="st1" d="M38.7 38.1c-.4.4-1 .4-1.4 0-.4-.4-.4-1 0-1.4 1-1 1-2.2 1-2.8-5-4.3-12.7-6-15.8-3.8-2.2 1.5-3.5 3.2-4.6 4.6-4.6 5.6-3.8 13.4 2.1 19.3s14.8 6.6 19.3 2.1c0 0 3.9-3.7 4.8-5 2.3-3.6.4-10.5-3.9-15.4-.4.8-.8 1.7-1.5 2.4zm-1.3 6.8c.7 2 .9 4 .4 5.7-.3 1.1-.8 2-1.6 2.7-3.1 3.1-9.2 2.2-13.6-2.1-4.3-4.3-5.3-10.4-2.1-13.5.7-.7 1.7-1.3 2.7-1.6 1.7-.5 3.7-.3 5.7.4 1.9.7 3.6 1.8 5.1 3.3 1.6 1.5 2.8 3.3 3.4 5.1zm13.8-25.1c-.1.1-.1.1-.1.2.5.4 1.1.9 1.6 1.4.5.5.9.9 1.3 1.4.1 0 .1-.1.2-.1.8-.8.8-2.1 0-2.9-1-.8-2.2-.8-3 0z"/><ellipse transform="rotate(-45.033 24.033 47.06)" class="st1" cx="24" cy="47.1" rx=".8" ry="1"/><ellipse transform="rotate(-44.992 23.679 43.138)" class="st1" cx="23.7" cy="43.1" rx="1.7" ry="2"/><path class="st1" d="M30.6 47.7c.8.8.9 2 .2 2.6-.7.7-1.8.5-2.6-.2-.8-.8-.9-2-.2-2.6.6-.7 1.8-.6 2.6.2zm3.3.9c.4.4.4 1 .1 1.3-.3.3-.9.3-1.3-.1s-.4-1-.1-1.3c.3-.3.9-.3 1.3.1zm-2.6-7.4c.8.8.9 2 .2 2.6-.7.7-1.8.6-2.6-.2s-.9-2-.2-2.6c.6-.7 1.8-.6 2.6.2zm-4.8-2.3c.4.4.4 1 .1 1.3-.3.3-.9.3-1.3-.1s-.5-1-.1-1.3c.4-.4.9-.3 1.3.1z"/></svg>