<svg id="Livello_1" xmlns="http://www.w3.org/2000/svg" viewBox="0 0 73.8 73.8"><style>.st0{fill:#000}.st1{fill:#fff}</style><circle class="st0" cx="36.9" cy="36.9" r="36.9"/><path class="st1" d="M42.9 46.9c5.1-3 7.3-8.8 6.3-14.5L46.5 17H25.3l-2.7 15.4c-.9 5.7 1.3 11.5 6.3 14.5 1.8 1.1 3.8 1.7 6 1.9V59l-9.6 1.1v1.1h21.3v-1.1L36.9 59V48.8c2.2-.1 4.3-.8 6-1.9zm-7-.1c-2.1 0-4.2-.6-5.9-1.6-1-.6-2-1.4-2.7-2.3-.7-.9-1.4-1.9-1.8-3-.9-2.2-1.2-4.6-.8-7.1L27 19.2h17.7l2.4 13.6c.4 2.5.1 4.9-.8 7.1-.5 1.1-1.1 2.1-1.8 3-.8.9-1.7 1.7-2.7 2.3-1.7 1-3.8 1.6-5.9 1.6z"/><path class="st1" d="M42.9 30.5c-.5-.1-1.1-.2-1.8-.2-.6 0-1.2.1-1.8.2-.5.1-1 .3-1.5.6-.8.5-1.5 1.3-2 1.9-.5.6-1.2 1.4-2 1.9-.4.2-.9.4-1.5.6-.5.1-1.1.2-1.8.2s-1.2-.1-1.8-.2c-.5-.1-1-.3-1.5-.6-.3-.2-.6-.4-.9-.7-.1 1.7.1 3.4.8 4.9.4.9.9 1.7 1.5 2.4s1.4 1.4 2.2 1.9c1.5.9 3.1 1.3 4.9 1.3 1.7 0 3.4-.5 4.9-1.3.8-.5 1.6-1.1 2.2-1.9.6-.7 1.1-1.5 1.5-2.4.8-1.8 1-3.8.7-5.9l-.3-1.7c-.1-.1-.3-.2-.4-.3-.3-.4-.8-.6-1.4-.7z"/></svg>