<svg id="Livello_1" xmlns="http://www.w3.org/2000/svg" viewBox="0 0 73.8 73.8"><style>.st0{fill:#000}.st1{fill:#fff}</style><circle class="st0" cx="36.9" cy="36.9" r="36.9"/><path class="st1" d="M17.8 30h38.8c.6 0 1-.3 1.3-.8.3-.5.3-1.1 0-1.6l-.1-.2c-1-1.1-3.6-3.7-5.2-3.7h-9.3c-.4-2.5-2.6-4.4-5.2-4.4h-2.6c-2.6 0-4.8 1.9-5.2 4.4h-8.4c-1.6 0-4.2 2.6-5.2 3.7l-.1.2c-.3.5-.3 1.1 0 1.6.2.5.7.8 1.2.8zm17.7-8.8h2.6c1.6 0 3 1.1 3.4 2.6H32c.5-1.4 1.8-2.6 3.5-2.6zm-13.7 4.4h30.8c.5 0 2 1.2 3.5 2.6H18.4c1.4-1.4 3-2.6 3.4-2.6zm37.6 13.5h-2.6c0-.5.2-1 .5-1.4l1.4-2.4c.3-.5.3-1.1 0-1.5-.3-.5-.8-.8-1.3-.8H16.6c-.5 0-1.1.3-1.3.8-.3.5-.3 1.1 0 1.5l1.4 2.4c.3.4.4.9.5 1.4h-2.6c-1.5 0-2.6 1.2-2.6 2.6s1.2 2.6 2.6 2.6h2.6v1.8h7c.5 0 .9.4.9.9s-.4.9-.9.9h-7v1.8h9.7c.5 0 .9.4.9.9s-.4.9-.9.9h-9.6c.5 2.5 2.7 4.4 5.3 4.4h28.7c3 0 5.4-2.4 5.4-5.5v-6h2.6c1.5 0 2.6-1.2 2.6-2.6s-1-2.7-2.5-2.7zm-44.9 3.5c-.5 0-.9-.4-.9-.9s.4-.9.9-.9h2.6v1.8h-2.6zm8 1.7H19v-1.8h3.5c.5 0 .9.4.9.9-.1.6-.5.9-.9.9zm36.9-1.7h-2.6v-1.8h2.6c.5 0 .9.4.9.9s-.4.9-.9.9z"/></svg>