<svg id="Livello_1" xmlns="http://www.w3.org/2000/svg" viewBox="0 0 73.8 73.8"><style>.st0{fill:#000}.st1{fill:#fff}</style><circle class="st0" cx="36.9" cy="36.9" r="36.9"/><path class="st1" d="M26.8 21.6h17.8c1 0 1.9-.9 1.9-1.9v-.8c0-1-.9-1.9-1.9-1.9H26.8c-1 0-1.9.9-1.9 1.9v.8c0 1 .8 1.9 1.9 1.9zm20.6 5c-.1-1-.6-1.9-1.4-2.4V23H25.3v1.2c-.8.5-1.3 1.4-1.4 2.4-2 1.3-3.4 3.6-3.4 6.3v18.8c0 4.1 3.4 7.5 7.5 7.5h15.4c4.1 0 7.5-3.4 7.5-7.5V32.9c-.1-2.6-1.4-4.9-3.5-6.3zM42 49.8c0 .9-.8 1.6-1.9 1.6h-19V32.3h19c1 0 1.9.7 1.9 1.6v15.9z"/></svg>