<svg id="Livello_1" xmlns="http://www.w3.org/2000/svg" xmlns:xlink="http://www.w3.org/1999/xlink" viewBox="0 0 73.8 73.8"><style>.st0{fill:#fff}.st0,.st1,.st2{clip-path:url(#SVGID_2_)}.st1{fill:#bd0035}.st2{fill:#2f2c7e}</style><g id="UNITED_KINGDOM_2_"><defs><path id="SVGID_1_" d="M9.3 21.5h56.1v32.8H9.3z"/></defs><clipPath id="SVGID_2_"><use xlink:href="#SVGID_1_" overflow="visible"/></clipPath><path class="st0" d="M9.3 21.5h56.1v32.8H9.3z"/><path class="st1" d="M46.9 33.4L65.4 23v-1.5h-1.3L43 33.4zm-.9 9.7L65.4 54v-2.2l-15.5-8.7zM9.3 24l16.6 9.4h3.9L9.3 21.8zm19.6 19.1l-19.6 11v.2h3.5l20-11.2z"/><path class="st2" d="M61.6 21.5H41.9v11zm-28.4 0H13.7l19.5 11zm32.2 11.9v-7.6l-13.3 7.6zm0 17.1v-7.4H52.1zm-50.6 3.8h18.4V43.9zm27.1 0h18.6L41.9 43.9zM9.3 43.1v7.8l13.8-7.8zm0-9.7h13.8L9.3 25.6z"/><path class="st1" d="M35 21.5v13.8H9.3v5.8H35v13.2h5.2V41.1h25.2v-5.8H40.2V21.5z"/></g></svg>