<svg id="Livello_1" xmlns="http://www.w3.org/2000/svg" viewBox="0 0 73.8 73.8"><style>.st0{fill:#0a0a0d}</style><path class="st0" d="M32.7 48.7c0 .9-.7 1.5-1.5 1.5s-1.5-.7-1.5-1.5V33.2c0-.9.7-1.5 1.5-1.5s1.5.7 1.5 1.5v15.5zm6.2 0c0 .9-.7 1.5-1.5 1.5s-1.5-.7-1.5-1.5V33.2c0-.9.7-1.5 1.5-1.5s1.5.7 1.5 1.5v15.5zm6.2 0c0 .9-.7 1.5-1.5 1.5s-1.6-.6-1.6-1.5V33.2c0-.9.7-1.5 1.5-1.5s1.5.7 1.5 1.5v15.5zm7.7-26.3v3.1H21.9v-3.1h8.8c1.4 0 2.5-1.7 2.5-3.1h8.2c0 1.4 1.1 3.1 2.5 3.1h8.9zm-4.6 6.2v24.8H26.5V28.6h-3.1v27.8h27.8V28.6h-3z"/></svg>