<svg id="Слой_1" xmlns="http://www.w3.org/2000/svg" width="200" height="200" viewBox="0 0 200 200"><style>.st0{fill-rule:evenodd;clip-rule:evenodd}</style><path class="st0" d="M100.5 194.5c-52.467 0-95-42.533-95-95s42.533-95 95-95 95 42.533 95 95-42.533 95-95 95zm53.371-121.172l-.257-.514c-2.57-2.827-9.253-9.508-13.365-9.508h-23.903c-1.028-6.424-6.683-11.307-13.365-11.307h-6.682c-6.683 0-12.337 4.883-13.365 11.307h-21.59c-4.112 0-10.795 6.681-13.365 9.508l-.257.514a3.944 3.944 0 0 0 0 4.112c.514 1.285 1.799 2.056 3.084 2.056h99.724c1.542 0 2.57-.771 3.341-2.056a3.944 3.944 0 0 0 0-4.112zm3.856 29.552h-6.683c0-1.285.514-2.57 1.285-3.598l3.598-6.167c.771-1.285.771-2.827 0-3.855-.771-1.285-2.056-2.056-3.341-2.056H47.722c-1.285 0-2.827.771-3.341 2.056-.771 1.285-.771 2.827 0 3.855l3.598 6.167c.771 1.028 1.028 2.313 1.285 3.598h-6.683c-3.855 0-6.682 3.084-6.682 6.681 0 3.598 3.084 6.681 6.682 6.681h6.683v4.626h17.991a2.303 2.303 0 0 1 2.313 2.313 2.303 2.303 0 0 1-2.313 2.313H49.264v4.626h24.931a2.303 2.303 0 0 1 2.313 2.313 2.303 2.303 0 0 1-2.313 2.313H49.521c1.285 6.424 6.939 11.307 13.622 11.307h73.765c7.711 0 13.879-6.167 13.879-14.134V116.5h6.683c3.855 0 6.682-3.084 6.682-6.681 0-3.598-2.57-6.939-6.425-6.939zm0 8.994h-6.683v-4.625h6.683a2.303 2.303 0 0 1 2.313 2.313 2.303 2.303 0 0 1-2.313 2.312zm-94.841 4.369H53.89v-4.626h8.996a2.303 2.303 0 0 1 2.313 2.313c-.257 1.542-1.285 2.313-2.313 2.313zm-22.875-6.681a2.303 2.303 0 0 1 2.313-2.313h6.683v4.625h-6.683a2.303 2.303 0 0 1-2.313-2.312zm21.076-41.374h79.163c1.285 0 5.14 3.084 8.996 6.681H52.348c3.599-3.597 7.711-6.681 8.739-6.681zm35.212-11.307h6.682c4.112 0 7.711 2.827 8.739 6.681H87.303c1.285-3.597 4.626-6.681 8.996-6.681z"/></svg>