<svg id="Слой_1" xmlns="http://www.w3.org/2000/svg" width="200" height="200" viewBox="0 0 200 200"><style>.st0{fill-rule:evenodd;clip-rule:evenodd}</style><path class="st0" d="M100.5 194.5c-52.467 0-95-42.533-95-95s42.533-95 95-95 95 42.533 95 95-42.533 95-95 95zm52.25-68.13c0-1.026-.772-1.795-1.544-2.051-2.831-.513-5.662-3.333-6.177-6.41-.257-1.282 0-2.308.515-3.077.257-.769 1.287-1.026 2.574-1.026.515 0 1.03.256 1.544.513.515.256 1.287.256 1.802-.256.515-.256 1.03-1.026 1.03-1.538v-4.359c0-4.102-2.059-8.205-5.405-10.769L112.855 65.09c-.772-.769-1.802-.769-2.574 0-.515.513-1.544.513-2.574.256-2.317-.769-4.633-3.333-4.633-5.897 0-.513 0-1.026.257-1.282.515-.769.257-1.795-.515-2.308l-5.92-5.641-.257-.256c-4.633-3.333-10.038-4.615-14.414-2.82L53.655 61.5c-3.346 1.538-5.405 4.872-5.405 8.461v30.769c0 .513.257 1.026.772 1.539.515.256 1.03.513 1.544.513.515 0 1.287 0 2.059.256 2.831 1.026 5.405 4.102 5.405 6.923 0 2.308-1.802 3.59-4.376 2.82-.772-.256-1.544-.769-2.316-1.282-.515-.513-1.287-.513-2.059-.256-.772.256-1.03 1.026-1.03 1.795v4.359c0 4.102 2.831 7.948 6.95 8.974l85.968 25.128c.772.256 1.544.256 2.316.256 2.317 0 4.633-1.026 6.435-2.564 1.802-1.795 2.831-4.102 2.831-6.41V126.37zm-51.22-45.384c-.772-.256-1.544-.256-2.316-.256-2.574 0-4.633 1.282-5.405 3.333L54.17 72.269c-1.287-.256-1.802-1.026-2.059-2.564v-.256c.257-2.051 1.287-3.59 3.089-4.359l29.085-14.102c.772-.256 1.802-.513 2.831-.513 2.574 0 5.148 1.026 7.464 2.82l4.89 4.615c0 .513-.257 1.026-.257 1.538 0 4.102 3.089 8.205 7.207 9.487 1.544.513 3.346.513 4.633 0l31.402 29.486-33.976-10c-.772-3.332-3.603-6.409-6.949-7.435zm-38.866.77c.515 0 1.287 0 1.802.256 3.089 1.026 5.405 4.103 5.405 7.179 0 2.82-2.059 4.872-4.89 4.872-.515 0-1.287 0-1.802-.256-3.089-1.026-5.405-4.103-5.405-7.179-.001-2.821 2.058-4.872 4.89-4.872zm9.008 26.922c.772 0 1.544 0 2.316.256 3.861 1.282 6.95 5.385 6.95 9.23 0 3.59-2.317 6.154-5.92 6.154-.772 0-1.544 0-2.316-.256-3.861-1.282-6.95-5.385-6.95-9.231 0-3.589 2.574-6.153 5.92-6.153zm11.84-6.153c0-.256.257-.256.257-.256 0-.256.257-.256.257-.513.257-.256.257-.513.515-.513l.515-.513c.257 0 .257-.256.515-.256.257-.256.515-.513.772-.513 1.03-.769 2.317-1.026 3.861-1.026 1.03 0 2.059.256 3.089.513l1.544.769c.257 0 .515.256.515.256.257.256.515.256 1.03.513.257.256.515.256.772.513.257.256.515.256.515.513.515.513 1.03.769 1.287 1.282l.515.513.772.769c.257.256.257.513.515.513.257.256.257.513.515.769l.772 1.538c.515 1.282.772 2.82.772 4.102 0 4.359-3.089 7.692-7.464 7.692-1.03 0-2.059-.256-3.089-.513-5.405-1.538-9.523-7.179-9.523-12.307 0-1.282.257-2.564.772-3.59v-.255zm14.672 4.871l-.257-.256c-.515-.769-1.03-1.538-1.544-2.051-.772-.513-1.287-1.282-2.316-1.538h-.257c-.515-.256-.772-.256-1.287-.513-.515-.256-.772-.256-1.287-.256h-.257c-.772 0-1.544 0-2.059.513l-.772.769c.772 1.795 2.831 3.846 5.405 4.359.515.256 1.287.256 1.802.256 1.03 0 2.059-.513 2.831-1.026v-.257zm-4.634 7.436c.515.256 1.287.256 1.802.256 2.059 0 3.346-1.282 3.603-3.333-1.03.513-2.317.769-3.603.769-1.03.256-2.059 0-3.089-.256-1.802-.513-3.346-1.539-4.633-2.82 1.03 2.307 3.347 4.615 5.92 5.384zm9.009-21.794c0-.256-.515-.256-.772-.256s-.515-.256-.772-.256c-1.802-1.026-3.089-2.821-3.604-4.615v-1.025c0-1.282.772-2.051 2.059-2.051.257 0 .772 0 1.287.256 2.316.769 4.118 3.077 4.376 5.384v.513c0 .256 0 .513-.257.769v.256c0 .256-.257.256-.257.513 0 .256-.257.256-.257.256h-.257s-.257.256-.515.256h-1.031zm9.781 9.999c.515 0 1.03 0 1.544.256 2.831.769 5.148 3.846 5.148 6.667 0 2.564-1.802 4.615-4.633 4.615-.515 0-1.03 0-1.544-.256-2.831-.769-5.148-3.846-5.148-6.667 0-2.82 1.802-4.615 4.633-4.615zm1.544 23.333c.515 0 1.03 0 1.544.256 2.831.769 5.148 3.846 5.148 6.667-.257 2.564-2.059 4.615-4.633 4.615-.515 0-1.03 0-1.544-.256-2.831-.769-5.148-3.846-5.148-6.666 0-2.565 1.802-4.616 4.633-4.616zm12.87-13.846c.772 0 1.544 0 2.317.256 3.861 1.282 6.949 5.384 6.949 9.231 0 3.59-2.316 6.154-5.92 6.154-.772 0-1.544 0-2.316-.256-3.861-1.282-6.95-5.384-6.95-9.231 0-3.59 2.574-6.154 5.92-6.154z"/></svg>