<svg id="Слой_1" xmlns="http://www.w3.org/2000/svg" width="200" height="200" viewBox="0 0 200 200"><style>.st0{fill-rule:evenodd;clip-rule:evenodd}</style><path class="st0" d="M100.5 194.5c-52.467 0-95-42.533-95-95s42.533-95 95-95 95 42.533 95 95-42.533 95-95 95zm33.537-112.28l-6.93-39.718H72.689L65.758 82.22c-2.31 14.701 3.337 29.66 16.171 37.397 4.62 2.837 9.754 4.384 15.401 4.9v26.307l-24.642 2.837v2.837h54.674v-2.837l-24.899-2.837v-26.307c5.647-.258 11.037-2.063 15.401-4.9 13.093-7.738 18.74-22.696 16.173-37.397zm-18.995 33.012c-4.364 2.579-9.754 4.127-15.144 4.127-5.39 0-10.781-1.548-15.145-4.127-2.567-1.547-5.134-3.611-6.931-5.932-1.797-2.321-3.594-4.9-4.62-7.737-2.31-5.674-3.08-11.864-2.053-18.312l5.904-35.076h45.434l6.16 35.076c1.027 6.448.257 12.638-2.053 18.312-1.284 2.837-2.824 5.416-4.62 7.737-2.055 2.322-4.365 4.385-6.932 5.932zm8.214-30.949l-.77-4.385c-.257-.258-.77-.516-1.027-.774-.77-1.032-2.053-1.547-3.594-1.805-1.284-.258-2.824-.516-4.62-.516-1.54 0-3.08.258-4.62.516-1.283.258-2.567.774-3.85 1.547-2.053 1.29-3.85 3.353-5.134 4.9-1.283 1.547-3.08 3.611-5.134 4.9-1.027.516-2.31 1.032-3.85 1.548-1.283.258-2.824.516-4.62.516s-3.08-.258-4.62-.516c-1.283-.258-2.567-.774-3.85-1.548-.77-.516-1.54-1.032-2.31-1.805-.257 4.385.257 8.769 2.053 12.638 1.027 2.321 2.31 4.384 3.85 6.19 1.54 1.805 3.594 3.611 5.647 4.9 3.85 2.321 7.957 3.353 12.578 3.353 4.364 0 8.727-1.29 12.578-3.353 2.054-1.29 4.107-2.837 5.647-4.9 1.54-1.805 2.823-3.869 3.85-6.19 2.053-4.642 2.566-9.8 1.796-15.216z"/></svg>