<svg xmlns="http://www.w3.org/2000/svg" width="200" height="200" viewBox="0 0 200 200"><path d="M100.5 4.5c-52.467 0-95 42.533-95 95s42.533 95 95 95 95-42.533 95-95-42.533-95-95-95zM72.82 50.222c0-2.566 2.307-4.876 4.869-4.876h45.618c2.563 0 4.869 2.31 4.869 4.876v2.053c0 2.567-2.307 4.876-4.869 4.876H77.689c-2.819 0-4.869-2.31-4.869-4.876v-2.053zm66.632 84.181c0 10.523-8.714 19.249-19.221 19.249H80.765c-10.508 0-19.221-8.726-19.221-19.249v-48.25c0-6.93 3.588-12.832 8.713-16.169.256-2.566 1.538-4.876 3.588-6.159v-3.08h53.05v3.08c2.05 1.283 3.332 3.593 3.588 6.159 5.382 3.593 8.714 9.496 8.97 16.169v48.25zm-27.678-49.79H63.081v49.02h48.693c2.819 0 4.869-1.797 4.869-4.106V88.72c.001-2.31-2.306-4.107-4.869-4.107z"/></svg>