<?xml version="1.0" encoding="utf-8"?>
<!-- Generator: Adobe Illustrator 17.0.0, SVG Export Plug-In . SVG Version: 6.00 Build 0)  -->
<!DOCTYPE svg PUBLIC "-//W3C//DTD SVG 1.1//EN" "http://www.w3.org/Graphics/SVG/1.1/DTD/svg11.dtd">
<svg version="1.1" id="iconmonstr" xmlns="http://www.w3.org/2000/svg" xmlns:xlink="http://www.w3.org/1999/xlink" x="0px" y="0px"
	 width="24px" height="24px" viewBox="0 0 24 24" style="enable-background:new 0 0 24 24;" xml:space="preserve">
<style type="text/css">
	.st0{fill-rule:evenodd;clip-rule:evenodd;}
</style>
<path id="basket-3" d="M4.558,7l4.701-4.702C9.458,2.1,9.719,2,9.98,2C10.593,2,11,2.505,11,3.029c0,0.25-0.092,0.504-0.299,0.711
	L7.441,7H4.558z M16.559,7h2.883L14.74,2.298C14.542,2.1,14.281,2,14.019,2C13.407,2,13,2.505,13,3.029
	c0,0.25,0.092,0.504,0.299,0.711L16.559,7z M24,9v2h-0.642c-0.534,0-1.022,0.305-1.257,0.786L18,22H6L1.899,11.784
	C1.665,11.304,1.177,11,0.643,11H0V9H24z M9,13c0-0.552-0.448-1-1-1c-0.552,0-1,0.448-1,1v5c0,0.552,0.448,1,1,1
	c0.552,0,1-0.448,1-1V13z M13,13c0-0.552-0.448-1-1-1c-0.552,0-1,0.448-1,1v5c0,0.552,0.448,1,1,1c0.552,0,1-0.448,1-1V13z M17,13
	c0-0.552-0.447-1-1-1c-0.553,0-1,0.448-1,1v5c0,0.552,0.447,1,1,1c0.553,0,1-0.448,1-1V13z"/>
</svg>
