<?xml version="1.0" encoding="utf-8"?>
<!-- Generator: Adobe Illustrator 17.0.0, SVG Export Plug-In . SVG Version: 6.00 Build 0)  -->
<!DOCTYPE svg PUBLIC "-//W3C//DTD SVG 1.1//EN" "http://www.w3.org/Graphics/SVG/1.1/DTD/svg11.dtd">
<svg version="1.1" id="iconmonstr" xmlns="http://www.w3.org/2000/svg" xmlns:xlink="http://www.w3.org/1999/xlink" x="0px" y="0px"
	 width="24px" height="24px" viewBox="0 0 24 24" style="enable-background:new 0 0 24 24;" xml:space="preserve">
<style type="text/css">
	.st0{fill-rule:evenodd;clip-rule:evenodd;}
</style>
<path id="trash-can-2" d="M10,19c0,0.552-0.448,1-1,1c-0.552,0-1-0.448-1-1V9c0-0.552,0.448-1,1-1c0.552,0,1,0.448,1,1V19z M14,19
	c0,0.552-0.448,1-1,1c-0.552,0-1-0.448-1-1V9c0-0.552,0.448-1,1-1c0.552,0,1,0.448,1,1V19z M18,19c0,0.552-0.448,1-1,1s-1-0.448-1-1
	V9c0-0.552,0.448-1,1-1s1,0.448,1,1V19z M23,2v2H3V2h5.711c0.9,0,1.631-1.099,1.631-2h5.315c0,0.901,0.73,2,1.631,2H23z M20,6v16H6
	V6H4v18h18V6H20z"/>
</svg>
