<?xml version="1.0" encoding="utf-8"?>
<!-- Generator: Adobe Illustrator 17.0.0, SVG Export Plug-In . SVG Version: 6.00 Build 0)  -->
<!DOCTYPE svg PUBLIC "-//W3C//DTD SVG 1.1//EN" "http://www.w3.org/Graphics/SVG/1.1/DTD/svg11.dtd">
<svg version="1.1" id="iconmonstr" xmlns="http://www.w3.org/2000/svg" xmlns:xlink="http://www.w3.org/1999/xlink" x="0px" y="0px"
	 width="24px" height="24px" viewBox="0 0 24 24" style="enable-background:new 0 0 24 24;" xml:space="preserve">
<style type="text/css">
	.st0{fill-rule:evenodd;clip-rule:evenodd;}
</style>
<path id="shopping-cart-3" d="M10.13,19.847c0,0.775-0.628,1.403-1.403,1.403c-0.774,0-1.403-0.628-1.403-1.403
	c0-0.774,0.628-1.402,1.403-1.402C9.501,18.445,10.13,19.073,10.13,19.847z M13.403,18.445c-0.774,0-1.403,0.628-1.403,1.402
	c0,0.775,0.628,1.403,1.403,1.403c0.774,0,1.403-0.628,1.403-1.403C14.806,19.073,14.177,18.445,13.403,18.445z M14.652,13.769
	l1.848-6.546H0.778l2.747,6.546H14.652z M19.299,4.417L16.09,15.639H4.309l0.784,1.87h12.381l3.248-11.222h1.804l0.695-1.87H19.299z
	"/>
</svg>
