<?xml version="1.0" encoding="utf-8"?>
<!-- Generator: Adobe Illustrator 17.0.0, SVG Export Plug-In . SVG Version: 6.00 Build 0)  -->
<!DOCTYPE svg PUBLIC "-//W3C//DTD SVG 1.1//EN" "http://www.w3.org/Graphics/SVG/1.1/DTD/svg11.dtd">
<svg version="1.1" id="iconmonstr" xmlns="http://www.w3.org/2000/svg" xmlns:xlink="http://www.w3.org/1999/xlink" x="0px" y="0px"
	 width="24px" height="24px" viewBox="0 0 24 24" style="enable-background:new 0 0 24 24;" xml:space="preserve">
<style type="text/css">
	.st0{fill-rule:evenodd;clip-rule:evenodd;}
</style>
<path id="google-plus-4" d="M12,0.5C5.649,0.5,0.5,5.649,0.5,12S5.649,23.5,12,23.5S23.5,18.351,23.5,12S18.351,0.5,12,0.5z
	 M9.205,15.913c-2.164,0-3.913-1.749-3.913-3.913s1.749-3.913,3.913-3.913c1.057,0,1.94,0.386,2.621,1.022l-1.061,1.023
	c-0.291-0.28-0.799-0.604-1.56-0.604c-1.335,0-2.426,1.107-2.426,2.471c0,1.364,1.09,2.471,2.426,2.471
	c1.549,0,2.131-1.113,2.22-1.688h-2.22v-1.342h3.695c0.035,0.196,0.062,0.391,0.062,0.649C12.961,14.326,11.463,15.913,9.205,15.913
	z M18.708,12.559h-1.677v1.677h-1.118v-1.677h-1.677v-1.117h1.677V9.764h1.118v1.677h1.677V12.559z"/>
</svg>
