<?xml version="1.0" encoding="utf-8"?>
<!-- Generator: Adobe Illustrator 17.0.0, SVG Export Plug-In . SVG Version: 6.00 Build 0)  -->
<!DOCTYPE svg PUBLIC "-//W3C//DTD SVG 1.1//EN" "http://www.w3.org/Graphics/SVG/1.1/DTD/svg11.dtd">
<svg version="1.1" id="iconmonstr" xmlns="http://www.w3.org/2000/svg" xmlns:xlink="http://www.w3.org/1999/xlink" x="0px" y="0px"
	 width="24px" height="24px" viewBox="0 0 24 24" style="enable-background:new 0 0 24 24;" xml:space="preserve">
<style type="text/css">
	.st0{fill-rule:evenodd;clip-rule:evenodd;}
</style>
<path d="M17.814,9.621c0.175,3.905-2.712,8.259-7.824,8.259c-1.554,0-3-0.46-4.219-1.248c1.461,0.174,2.918-0.235,4.075-1.15
	c-1.204-0.022-2.221-0.825-2.572-1.928c0.432,0.083,0.857,0.059,1.244-0.048C7.194,13.238,6.28,12.036,6.31,10.75
	c0.372,0.208,0.795,0.333,1.247,0.347c-1.226-0.826-1.572-2.459-0.852-3.706c1.357,1.68,3.386,2.785,5.673,2.9
	c-0.401-1.736,0.905-3.409,2.682-3.409c0.791,0,1.507,0.337,2.008,0.877c0.627-0.124,1.217-0.355,1.748-0.673
	c-0.206,0.648-0.642,1.192-1.21,1.536c0.557-0.067,1.087-0.216,1.581-0.437C18.819,8.741,18.353,9.23,17.814,9.621z M12,0.299
	c-6.351,0-11.5,5.193-11.5,11.598c0,6.405,5.149,11.598,11.5,11.598c6.351,0,11.5-5.193,11.5-11.598
	C23.5,5.492,18.351,0.299,12,0.299z"/>
</svg>
