<?xml version="1.0" encoding="utf-8"?>
<!-- Generator: Adobe Illustrator 17.0.0, SVG Export Plug-In . SVG Version: 6.00 Build 0)  -->
<!DOCTYPE svg PUBLIC "-//W3C//DTD SVG 1.1//EN" "http://www.w3.org/Graphics/SVG/1.1/DTD/svg11.dtd">
<svg version="1.1" id="iconmonstr" xmlns="http://www.w3.org/2000/svg" xmlns:xlink="http://www.w3.org/1999/xlink" x="0px" y="0px"
	 width="24px" height="24px" viewBox="0 0 24 24" style="enable-background:new 0 0 24 24;" xml:space="preserve">
<style type="text/css">
	.st0{fill-rule:evenodd;clip-rule:evenodd;}
</style>
<path d="M16.792,15.763h-1.915c0,0,0-1.839,0-2.765c0-1.818-1.918-1.664-1.918,0c0,0.992,0,2.765,0,2.765h-1.917V9.965h1.917v1.056
	c0.836-1.562,3.833-1.678,3.833,1.496C16.792,14.243,16.792,15.763,16.792,15.763z M9.125,9.104c-0.582,0-1.054-0.479-1.054-1.072
	c0-0.592,0.472-1.072,1.054-1.072c0.582,0,1.054,0.48,1.054,1.072C10.179,8.624,9.707,9.104,9.125,9.104z M10.083,15.763H8.167
	V9.965h1.917V15.763z M12,0.299c-6.351,0-11.5,5.193-11.5,11.599c0,6.405,5.149,11.598,11.5,11.598c6.351,0,11.5-5.193,11.5-11.598
	C23.5,5.492,18.351,0.299,12,0.299z"/>
</svg>
