<?xml version="1.0" encoding="utf-8"?>
<!-- Generator: Adobe Illustrator 17.0.0, SVG Export Plug-In . SVG Version: 6.00 Build 0)  -->
<!DOCTYPE svg PUBLIC "-//W3C//DTD SVG 1.1//EN" "http://www.w3.org/Graphics/SVG/1.1/DTD/svg11.dtd">
<svg version="1.1" id="iconmonstr" xmlns="http://www.w3.org/2000/svg" xmlns:xlink="http://www.w3.org/1999/xlink" x="0px" y="0px"
	 width="24px" height="24px" viewBox="0 0 24 24" style="enable-background:new 0 0 24 24;" xml:space="preserve">
<style type="text/css">
	.st0{fill-rule:evenodd;clip-rule:evenodd;}
</style>
<path d="M14.875,8.236c0,0-0.878,0-1.293,0c-0.516,0-0.623,0.213-0.623,0.752c0,0.448,0,1.181,0,1.181h1.917l-0.2,1.933h-1.716
	v6.765h-2.875v-6.765H8.167v-1.933h1.917c0,0,0-0.741,0-2.23c0-1.71,0.892-2.602,2.903-2.602c0.328,0,1.889,0,1.889,0V8.236z
	 M12,0.504c-6.351,0-11.5,5.193-11.5,11.598c0,6.406,5.149,11.598,11.5,11.598s11.5-5.193,11.5-11.598
	C23.5,5.697,18.351,0.504,12,0.504z"/>
</svg>
