<?xml version="1.0" encoding="utf-8"?>
<!-- Generator: Adobe Illustrator 17.0.0, SVG Export Plug-In . SVG Version: 6.00 Build 0)  -->
<!DOCTYPE svg PUBLIC "-//W3C//DTD SVG 1.1//EN" "http://www.w3.org/Graphics/SVG/1.1/DTD/svg11.dtd">
<svg version="1.1" id="iconmonstr" xmlns="http://www.w3.org/2000/svg" xmlns:xlink="http://www.w3.org/1999/xlink" x="0px" y="0px"
	 width="24px" height="24px" viewBox="0 0 24 24" style="enable-background:new 0 0 24 24;" xml:space="preserve">
<style type="text/css">
	.st0{fill-rule:evenodd;clip-rule:evenodd;}
</style>
<path id="instagram-9" d="M17.031,7.484V8.7c0,0.285-0.231,0.517-0.516,0.517H15.3c-0.286,0-0.516-0.232-0.516-0.517V7.484
	c0-0.285,0.229-0.516,0.516-0.516h1.216C16.8,6.969,17.031,7.2,17.031,7.484z M12,14.579c1.424,0,2.581-1.155,2.581-2.58
	S13.424,9.421,12,9.421c-1.425,0-2.579,1.154-2.579,2.579S10.575,14.579,12,14.579z M16.083,11.425
	c0.027,0.188,0.044,0.379,0.044,0.574c0,2.281-1.847,4.129-4.127,4.129c-2.28,0-4.128-1.848-4.128-4.129
	c0-0.195,0.017-0.386,0.044-0.574c0.026-0.186,0.064-0.367,0.113-0.544H6.969v5.634c0,0.285,0.231,0.516,0.516,0.516h9.031
	c0.285,0,0.516-0.231,0.516-0.516v-5.634H15.97C16.019,11.059,16.057,11.24,16.083,11.425z M23.5,12c0,6.351-5.149,11.5-11.5,11.5
	S0.5,18.351,0.5,12S5.649,0.5,12,0.5S23.5,5.649,23.5,12z M18.708,6.84c0-0.855-0.693-1.548-1.548-1.548H6.84
	c-0.855,0-1.548,0.693-1.548,1.548v10.32c0,0.856,0.693,1.549,1.548,1.549H17.16c0.855,0,1.548-0.693,1.548-1.549V6.84z"/>
</svg>
