<?xml version="1.0" encoding="utf-8"?>
<!-- Generator: Adobe Illustrator 17.0.0, SVG Export Plug-In . SVG Version: 6.00 Build 0)  -->
<!DOCTYPE svg PUBLIC "-//W3C//DTD SVG 1.1//EN" "http://www.w3.org/Graphics/SVG/1.1/DTD/svg11.dtd">
<svg version="1.1" id="Livello_1" xmlns="http://www.w3.org/2000/svg" xmlns:xlink="http://www.w3.org/1999/xlink" x="0px" y="0px"
	 width="739.333px" height="243.333px" viewBox="0 0 739.333 243.333" enable-background="new 0 0 739.333 243.333"
	 xml:space="preserve">
<g id="q7H98h_1_" display="none">
	
		<image display="inline" overflow="visible" width="323" height="120" id="q7H98h_2_" xlink:href="4564880B.jpg"  transform="matrix(2.5231 0 0 2.5231 -21.0854 -17.2106)">
	</image>
</g>
<path fill="#F6922F" d="M180.225,239.86c-4.492-1.324-8.82-2.61-13.155-3.868c-1.152-0.334-1.769-0.827-1.667-2.239
	c0.664-9.188,1.217-18.383,1.833-27.574c0.404-6.03,0.76-12.066,1.311-18.083c0.445-4.865,1.108-9.711,1.747-14.556
	c0.758-5.755,1.588-11.502,2.398-17.25c0.344-2.442,0.48-4.945,1.119-7.309c2.249-8.333,2.702-16.94,4.123-25.396
	c2.151-12.796,3.47-25.652,3.359-38.637c-0.01-1.201-0.223-2.398-0.307-3.6c-0.124-1.775-1.22-2.876-2.716-3.458
	c-1.59-0.618-3.028,0.124-3.937,1.399c-2.712,3.802-5.589,7.532-7.861,11.593c-3.078,5.502-4.405,11.64-5.439,17.847
	c-1.122,6.736-2.61,13.41-3.779,20.139c-2.256,12.975-4.546,25.945-4.437,39.201c0.04,4.837,1.447,8.935,4.92,12.386
	c2.861,2.843,3.015,6.438,2.161,10.133c-1.292,5.59-2.625,11.172-3.992,16.744c-1.256,5.12-2.584,10.222-3.873,15.334
	c-0.768,3.046-1.52,6.096-2.226,8.934c-5.785-0.824-11.341-1.614-17.153-2.442c-0.301-4.038-0.579-8.095-0.911-12.148
	c-0.84-10.266-1.744-20.527-2.544-30.797c-0.491-6.312-0.939-12.63-1.224-18.953c-0.399-8.817,2.124-16.685,7.821-23.55
	c2.391-2.881,3.77-6.354,3.653-10.164c-0.148-4.829-0.535-9.651-0.835-14.475c-0.182-2.931-0.383-5.86-0.596-8.789
	c-0.682-9.358-1.374-18.715-2.066-28.073c-0.034-0.459,0.011-0.975-0.187-1.357c-0.257-0.496-0.722-0.884-1.098-1.318
	c-0.34,0.496-0.951,0.977-0.978,1.489c-0.218,4.141-0.331,8.288-0.466,12.434c-0.275,8.404-0.542,16.809-0.82,25.213
	c-0.018,0.535-0.099,1.068-0.15,1.603c-0.145,0.011-0.291,0.022-0.436,0.033c-0.206-0.978-0.535-1.948-0.598-2.935
	c-0.572-8.964-1.075-17.932-1.651-26.896c-0.199-3.1-0.508-6.194-0.864-9.28c-0.062-0.54-0.608-1.024-0.931-1.534
	c-0.306,0.504-0.838,0.989-0.882,1.514c-0.355,4.303-0.675,8.611-0.897,12.923c-0.42,8.166-0.762,16.336-1.162,24.504
	c-0.027,0.552-0.274,1.094-0.797,1.621c-1.464-13.499-1.68-27.047-2.71-40.531c-0.23-0.071-0.46-0.142-0.69-0.214
	c-0.344,0.596-0.913,1.164-0.995,1.794c-0.371,2.85-0.678,5.712-0.872,8.58c-0.457,6.772-0.797,13.553-1.263,20.324
	c-0.232,3.369-0.637,6.726-0.964,10.089c-0.162,0.024-0.323,0.047-0.485,0.071c-0.118-0.409-0.329-0.815-0.339-1.226
	c-0.154-6.735-0.228-13.472-0.432-20.205c-0.185-6.098-0.488-12.193-0.805-18.286c-0.02-0.389-0.612-0.749-0.938-1.122
	c-0.353,0.38-0.953,0.721-1.017,1.145c-0.286,1.874-0.465,3.769-0.6,5.662c-0.569,7.982-1.092,15.966-1.666,23.948
	c-0.429,5.97-0.782,11.949-1.405,17.899c-0.702,6.699,1.059,12.61,5.132,17.871c4.18,5.401,6.433,11.341,6.072,18.303
	c-0.622,12.019-0.8,24.063-1.562,36.072c-0.582,9.172-1.779,18.305-2.709,27.454c-0.028,0.278-0.135,0.549-0.197,0.794
	c-5.313,0.488-10.564,0.971-16.003,1.471c-0.523-2.062-1.085-4.147-1.578-6.249c-1.376-5.865-2.769-11.726-4.068-17.607
	c-1.25-5.657-2.485-11.32-3.556-17.013c-1.528-8.125-2.756-16.308-4.382-24.412c-1.466-7.306,0.505-13.489,4.983-19.245
	c2.613-3.36,4.88-7.01,7.082-10.662c1.926-3.196,2.665-6.829,2.883-10.529c0.996-16.891-5.06-30.642-18.596-40.879
	c-7.66-5.793-15.401-4.49-21.703,2.866c-5.878,6.862-8.73,15.004-9.574,23.996c-0.458,4.876-0.354,9.674,0.573,14.427
	c1.521,7.797,5.374,14.287,11.509,19.394c3.429,2.854,6.989,5.58,10.184,8.679c3.183,3.088,4.573,7.105,4.918,11.571
	c0.385,4.985,1.146,9.939,1.627,14.918c0.326,3.378,0.487,6.774,0.655,10.165c0.399,8.053,0.763,16.107,1.133,24.161
	c0.288,6.27,0.565,12.541,0.843,18.811c0.017,0.394,0.002,0.79,0.002,1.069c-6.351,2.086-12.576,4.13-19.021,6.247
	c-0.615-2.88-1.234-5.772-1.848-8.665c-0.965-4.545-1.945-9.088-2.886-13.638c-0.918-4.439-1.779-8.89-2.693-13.331
	c-1.747-8.487-3.514-16.97-5.272-25.454c-0.582-2.808-1.167-5.615-1.738-8.425c-0.195-0.957-0.523-1.541-1.684-1.804
	c-14.231-3.226-25.699-10.723-34.157-22.63c-4.592-6.465-7.564-13.662-9.063-21.488C3,118.324,2.772,112.222,3.666,106.172
	c1.972-13.344,7.885-24.708,17.973-33.776C28.642,66.1,36.696,61.81,45.911,59.667c4.674-1.087,9.365-1.786,14.155-1.556
	c1.342,0.065,1.851-0.482,2.105-1.642c2.066-9.421,6.081-17.941,11.843-25.663c5.688-7.623,12.685-13.753,20.911-18.503
	c6.952-4.014,14.431-6.685,22.305-7.995c6.703-1.115,13.493-1.315,20.293-0.385c17.771,2.429,32.424,10.532,43.976,24.173
	c5.364,6.334,9.264,13.547,12.009,21.415c2.317,6.64,3.251,13.493,3.769,20.441c0.064,0.852,0.175,1.378,1.192,1.745
	c7.484,2.698,14.28,6.587,20.076,12.097c5.878,5.588,10.3,12.103,13.447,19.648c3.925,9.41,5.024,19.105,3.692,29.04
	c-1.333,9.937-5.27,18.932-11.536,26.805c-5.791,7.275-12.966,12.891-21.543,16.455c-3.977,1.653-8.284,2.531-12.475,3.636
	c-1.232,0.325-1.958,0.593-2.141,2.107c-0.829,6.847-1.864,13.668-2.765,20.506c-0.826,6.27-1.54,12.554-2.366,18.824
	C182.025,227.135,181.115,233.445,180.225,239.86z"/>
<text id="Valtellina_Taste_FONT" transform="matrix(1 0 0 1 272.3322 198.6401)" display="none" fill="#584238" font-family="'HelveticaNeueLTStd-Lt'" font-size="75.1539">Valtellina Taste</text>
<text id="iperal_FONT" transform="matrix(1 0 0 1 271.9985 122.7959)" display="none" fill="#584238" font-family="'HelveticaNeueLTStd-Hv'" font-size="75.1539">iperal</text>
<g>
	<path fill="#584238" d="M271.806,144.983h5.486l17.435,48.021h0.15l17.284-48.021h5.411l-19.915,53.656h-5.937L271.806,144.983z"/>
	<path fill="#584238" d="M316.822,171.737c0.451-9.093,6.838-13.001,15.706-13.001c6.839,0,14.279,2.104,14.279,12.475v20.591
		c0,1.803,0.901,2.855,2.78,2.855c0.526,0,1.127-0.15,1.503-0.301v3.982c-1.052,0.226-1.804,0.301-3.081,0.301
		c-4.81,0-5.561-2.705-5.561-6.763h-0.15c-3.307,5.035-6.688,7.891-14.128,7.891c-7.139,0-13.001-3.532-13.001-11.348
		c0-10.897,10.596-11.272,20.816-12.475c3.908-0.451,6.087-0.977,6.087-5.26c0-6.388-4.584-7.966-10.145-7.966
		c-5.862,0-10.22,2.705-10.371,9.018H316.822z M342.072,177.448h-0.15c-0.602,1.127-2.706,1.503-3.983,1.729
		c-8.041,1.428-18.036,1.353-18.036,8.943c0,4.734,4.208,7.666,8.642,7.666c7.214,0,13.602-4.584,13.527-12.174V177.448z"/>
	<path fill="#584238" d="M356.353,144.983h4.734v53.656h-4.734V144.983z"/>
	<path fill="#584238" d="M377.697,159.863h7.891v3.983h-7.891v26.152c0,3.081,0.45,4.885,3.832,5.11
		c1.353,0,2.705-0.075,4.059-0.225v4.058c-1.429,0-2.781,0.15-4.209,0.15c-6.313,0-8.492-2.104-8.417-8.717v-26.528h-6.764v-3.983
		h6.764v-11.648h4.735V159.863z"/>
	<path fill="#584238" d="M395.207,180.529c0.075,6.914,3.683,15.255,12.775,15.255c6.914,0,10.672-4.058,12.175-9.92h4.734
		c-2.029,8.792-7.14,13.903-16.909,13.903c-12.324,0-17.51-9.469-17.51-20.516c0-10.22,5.186-20.516,17.51-20.516
		c12.476,0,17.436,10.896,17.06,21.793H395.207z M420.308,176.546c-0.226-7.14-4.659-13.828-12.325-13.828
		c-7.74,0-12.023,6.763-12.775,13.828H420.308z"/>
	<path fill="#584238" d="M431.506,144.983h4.734v53.656h-4.734V144.983z"/>
	<path fill="#584238" d="M445.409,144.983h4.734v53.656h-4.734V144.983z"/>
	<path fill="#584238" d="M459.313,144.983h4.734v7.59h-4.734V144.983z M459.313,159.863h4.734v38.777h-4.734V159.863z"/>
	<path fill="#584238" d="M473.065,159.863h4.734v6.688h0.15c1.729-4.659,6.914-7.815,12.399-7.815
		c10.897,0,14.204,5.711,14.204,14.955v24.949h-4.734v-24.198c0-6.688-2.18-11.723-9.845-11.723
		c-7.516,0-12.024,5.711-12.175,13.301v22.62h-4.734V159.863z"/>
	<path fill="#584238" d="M513.046,171.737c0.451-9.093,6.839-13.001,15.707-13.001c6.838,0,14.278,2.104,14.278,12.475v20.591
		c0,1.803,0.901,2.855,2.78,2.855c0.526,0,1.127-0.15,1.503-0.301v3.982c-1.052,0.226-1.804,0.301-3.081,0.301
		c-4.81,0-5.562-2.705-5.562-6.763h-0.149c-3.307,5.035-6.688,7.891-14.129,7.891c-7.139,0-13.001-3.532-13.001-11.348
		c0-10.897,10.597-11.272,20.817-12.475c3.907-0.451,6.087-0.977,6.087-5.26c0-6.388-4.584-7.966-10.146-7.966
		c-5.861,0-10.221,2.705-10.37,9.018H513.046z M538.297,177.448h-0.15c-0.602,1.127-2.705,1.503-3.983,1.729
		c-8.041,1.428-18.035,1.353-18.035,8.943c0,4.734,4.208,7.666,8.642,7.666c7.215,0,13.603-4.584,13.527-12.174V177.448z"/>
	<path fill="#584238" d="M568.51,144.983h42.535v4.359h-18.713v49.297h-5.109v-49.297H568.51V144.983z"/>
	<path fill="#584238" d="M606.388,171.737c0.451-9.093,6.839-13.001,15.707-13.001c6.838,0,14.278,2.104,14.278,12.475v20.591
		c0,1.803,0.901,2.855,2.78,2.855c0.526,0,1.127-0.15,1.503-0.301v3.982c-1.052,0.226-1.804,0.301-3.081,0.301
		c-4.81,0-5.562-2.705-5.562-6.763h-0.149c-3.307,5.035-6.688,7.891-14.129,7.891c-7.139,0-13.001-3.532-13.001-11.348
		c0-10.897,10.597-11.272,20.817-12.475c3.907-0.451,6.087-0.977,6.087-5.26c0-6.388-4.584-7.966-10.146-7.966
		c-5.861,0-10.221,2.705-10.37,9.018H606.388z M631.639,177.448h-0.15c-0.602,1.127-2.705,1.503-3.983,1.729
		c-8.041,1.428-18.035,1.353-18.035,8.943c0,4.734,4.208,7.666,8.642,7.666c7.215,0,13.603-4.584,13.527-12.174V177.448z"/>
	<path fill="#584238" d="M669.065,171.21c-0.226-5.861-4.734-8.492-10.146-8.492c-4.208,0-9.168,1.653-9.168,6.688
		c0,4.208,4.81,5.711,8.041,6.538l6.313,1.428c5.41,0.827,11.047,3.983,11.047,10.746c0,8.417-8.342,11.648-15.556,11.648
		c-9.019,0-15.181-4.208-15.932-13.677h4.734c0.375,6.388,5.109,9.694,11.422,9.694c4.435,0,10.597-1.954,10.597-7.365
		c0-4.509-4.209-6.012-8.492-7.064l-6.087-1.353c-6.162-1.653-10.821-3.757-10.821-10.371c0-7.891,7.74-10.896,14.579-10.896
		c7.74,0,13.902,4.058,14.203,12.475H669.065z"/>
	<path fill="#584238" d="M689.506,159.863h7.892v3.983h-7.892v26.152c0,3.081,0.451,4.885,3.833,5.11
		c1.353,0,2.705-0.075,4.059-0.225v4.058c-1.429,0-2.781,0.15-4.209,0.15c-6.313,0-8.491-2.104-8.417-8.717v-26.528h-6.763v-3.983
		h6.763v-11.648h4.734V159.863z"/>
	<path fill="#584238" d="M707.017,180.529c0.075,6.914,3.683,15.255,12.775,15.255c6.914,0,10.672-4.058,12.175-9.92h4.734
		c-2.029,8.792-7.14,13.903-16.909,13.903c-12.324,0-17.51-9.469-17.51-20.516c0-10.22,5.186-20.516,17.51-20.516
		c12.476,0,17.436,10.896,17.06,21.793H707.017z M732.117,176.546c-0.226-7.14-4.659-13.828-12.325-13.828
		c-7.74,0-12.023,6.763-12.775,13.828H732.117z"/>
</g>
<g>
	<path fill="#584238" d="M289.508,78.909h-12.775v-9.77h12.775V78.909z M276.733,83.793h12.775v39.002h-12.775V83.793z"/>
	<path fill="#584238" d="M298.527,83.793h12.174v4.509h0.15c2.48-3.682,6.238-5.636,10.747-5.636
		c12.25,0,17.435,10.521,17.435,21.493c0,10.146-5.411,19.765-16.458,19.765c-4.81,0-8.492-1.804-11.122-5.336h-0.15v17.285h-12.775
		V83.793z M310.851,102.881c0,6.838,1.954,11.272,7.741,11.272c5.711,0,7.665-5.937,7.665-11.272c0-4.96-1.954-10.446-7.59-10.446
		C315.21,92.436,310.851,94.84,310.851,102.881z"/>
	<path fill="#584238" d="M356.77,106.413c0.226,5.336,3.307,8.868,8.717,8.868c3.081,0,6.087-1.428,7.29-4.283h11.949
		c-2.33,9.018-10.672,12.926-19.389,12.926c-12.7,0-21.342-7.666-21.342-20.742c0-11.949,9.544-20.516,21.042-20.516
		c13.978,0,20.967,10.521,20.365,23.747H356.77z M372.626,99.274c-0.225-4.358-3.307-7.966-7.59-7.966
		c-4.509,0-7.515,3.231-8.267,7.966H372.626z"/>
	<path fill="#584238" d="M392.242,83.793h12.399v6.838h0.15c1.879-4.96,6.237-7.59,11.724-7.59c0.977,0,2.029,0.075,3.006,0.3
		v11.648c-1.653-0.451-3.156-0.751-4.885-0.751c-6.313,0-9.619,4.358-9.619,9.243v19.313h-12.775V83.793z"/>
	<path fill="#584238" d="M423.281,95.817c0.226-5.11,2.63-8.417,6.087-10.446c3.457-1.954,7.966-2.706,12.399-2.706
		c9.243,0,18.187,2.029,18.187,13.076v17.059c0,3.307,0,6.914,1.503,9.995h-12.851c-0.451-1.202-0.602-2.405-0.752-3.682
		c-3.307,3.457-8.191,4.81-12.851,4.81c-7.439,0-13.301-3.758-13.301-11.799c0-12.7,13.827-11.723,22.694-13.527
		c2.18-0.451,3.382-1.202,3.382-3.607c0-2.931-3.531-4.058-6.162-4.058c-3.532,0-5.786,1.578-6.388,4.885H423.281z M439.813,116.032
		c6.088,0,8.116-3.457,7.815-11.498c-1.803,1.127-5.109,1.353-7.891,2.104c-2.855,0.676-5.26,1.879-5.26,4.96
		C434.479,114.755,436.958,116.032,439.813,116.032z"/>
	<path fill="#584238" d="M468.822,69.139h12.775v53.657h-12.775V69.139z"/>
</g>
</svg>
