<svg xmlns="http://www.w3.org/2000/svg" viewBox="0 0 73.8 73.8"><circle fill="#5A60A6" cx="36.9" cy="36.9" r="36.9"/><g fill="#FFF"><path d="M33 43c-.7-.2-1.3-.6-1.8-1.1.4.9 1.3 1.8 2.3 2.1.2.1.5.1.7.1.8 0 1.3-.5 1.4-1.3-.4.2-.9.3-1.4.3-.4.1-.8 0-1.2-.1zm.5-1.5c.2.1.5.1.7.1.4 0 .8-.2 1.1-.4v-.1l-.1-.1c-.2-.3-.4-.6-.6-.8-.3-.2-.5-.5-.9-.6h-.1c-.2-.1-.3-.1-.5-.2s-.3-.1-.5-.1h-.1c-.3 0-.6 0-.8.2l-.3.3c.3.7 1.1 1.5 2.1 1.7z"/><path d="M54.7 43.6c.2 0 .4.1.6.2.2.1.5.1.7-.1.2-.1.4-.4.4-.6v-1.7c0-1.6-.8-3.2-2.1-4.2L41 24.6c-.3-.3-.7-.3-1 0-.2.2-.6.2-1 .1-.9-.3-1.8-1.3-1.8-2.3 0-.2 0-.4.1-.5.2-.3.1-.7-.2-.9l-2.3-2.2-.1-.1c-1.8-1.3-3.9-1.8-5.6-1.1L18 23.2c-1.3.6-2.1 1.9-2.1 3.3v12c0 .2.1.4.3.6.2.1.4.2.6.2.2 0 .5 0 .8.1 1.1.4 2.1 1.6 2.1 2.7 0 .9-.7 1.4-1.7 1.1-.3-.1-.6-.3-.9-.5-.2-.2-.5-.2-.8-.1-.3.1-.4.4-.4.7V45c0 1.6 1.1 3.1 2.7 3.5L52 58.3c.3.1.6.1.9.1.9 0 1.8-.4 2.5-1 .7-.7 1.1-1.6 1.1-2.5v-6.4c0-.4-.3-.7-.6-.8-1.1-.2-2.2-1.3-2.4-2.5-.1-.5 0-.9.2-1.2.1-.3.5-.4 1-.4zm-18-8.2c-.1 0-.2-.1-.3-.1-.7-.4-1.2-1.1-1.4-1.8v-.4c0-.5.3-.8.8-.8.1 0 .3 0 .5.1.9.3 1.6 1.2 1.7 2.1v.2c0 .1 0 .2-.1.3v.1c0 .1-.1.1-.1.2s-.1.1-.1.1h-.1s-.1.1-.2.1H37c0-.1-.2-.1-.3-.1zM18.6 24.6l11.3-5.5c.3-.1.7-.2 1.1-.2 1 0 2 .4 2.9 1.1l1.9 1.8c0 .2-.1.4-.1.6 0 1.6 1.2 3.2 2.8 3.7.6.2 1.3.2 1.8 0l12.2 11.5-13.2-3.9c-.3-1.3-1.4-2.5-2.7-2.9-.3-.1-.6-.1-.9-.1-1 0-1.8.5-2.1 1.3l-15.4-4.6c-.5-.1-.7-.4-.8-1v-.1c.1-.8.5-1.4 1.2-1.7zm3.1 11.2c-1.2-.4-2.1-1.6-2.1-2.8 0-1.1.8-1.9 1.9-1.9.2 0 .5 0 .7.1 1.2.4 2.1 1.6 2.1 2.8 0 1.1-.8 1.9-1.9 1.9-.2 0-.5 0-.7-.1zm4.6 11.9c-.3 0-.6 0-.9-.1-1.5-.5-2.7-2.1-2.7-3.6 0-1.4 1-2.4 2.3-2.4.3 0 .6 0 .9.1 1.5.5 2.7 2.1 2.7 3.6 0 1.4-.9 2.4-2.3 2.4zm7.9-2c-.4 0-.8-.1-1.2-.2-2.1-.6-3.7-2.8-3.7-4.8 0-.5.1-1 .3-1.4v-.1c0-.1.1-.1.1-.1 0-.1.1-.1.1-.2.1-.1.1-.2.2-.2l.2-.2c.1 0 .1-.1.2-.1.1-.1.2-.2.3-.2.4-.3.9-.4 1.5-.4.4 0 .8.1 1.2.2l.6.3c.1 0 .2.1.2.1.1.1.2.1.4.2.1.1.2.1.3.2.1.1.2.1.2.2.2.2.4.3.5.5l.2.2.3.3c.1.1.1.2.2.2.1.1.1.2.2.3l.3.6c.2.5.3 1.1.3 1.6 0 1.7-1.2 3-2.9 3zm6.6-6.3c.2 0 .4 0 .6.1 1.1.3 2 1.5 2 2.6 0 1-.7 1.8-1.8 1.8-.2 0-.4 0-.6-.1-1.1-.3-2-1.5-2-2.6s.7-1.8 1.8-1.8zM42.2 53c-.2 0-.4 0-.6-.1-1.1-.3-2-1.5-2-2.6 0-1 .7-1.8 1.8-1.8.2 0 .4 0 .6.1 1.1.3 2 1.5 2 2.6-.1 1-.8 1.8-1.8 1.8zm5.5-3.8c-.3 0-.6 0-.9-.1-1.5-.5-2.7-2.1-2.7-3.6 0-1.4 1-2.4 2.3-2.4.3 0 .6 0 .9.1 1.5.5 2.7 2.1 2.7 3.6 0 1.4-.9 2.4-2.3 2.4z"/></g></svg>