<svg xmlns="http://www.w3.org/2000/svg" viewBox="0 0 73.8 73.8"><path d="M15.5 23.6v22.9L28.2 35zm34.8-1.9H17.6l16.3 14.7zm-8 15.7c1.5-.7 3.2-1.1 5-1.1 1.8 0 3.5.4 5.1 1.1V23.6L39.7 35l2.6 2.4zm-2.5 1.5l-2.2-2-3.6 3.3-3.6-3.3-12.8 11.4h17.6c0-3.8 1.8-7.2 4.6-9.4zm7.5.2c-5.1 0-9.3 4.2-9.3 9.3s4.2 9.3 9.3 9.3 9.3-4.2 9.3-9.3-4.2-9.3-9.3-9.3zm-1.2 14.3L40.6 48l2-2 3.5 3.5 5.2-5.2 2 2-7.2 7.1z" fill="#FFF"/><circle fill="#CA4842" cx="36.9" cy="36.9" r="36.9"/><path fill="#FFF" d="M62.5 39.4c0-.6-.5-1.1-1.1-1.1h-.3l-4.6-8.9c-.2-.4-.6-.6-1-.6h-7.9l.3-2.4c.1-1-.2-1.9-.8-2.5-.6-.7-1.5-1.1-2.4-1.1H20c-.6 0-1.1.5-1.2 1.1l-.2 2h14c.9 0 1.6.7 1.6 1.6 0 .9-.8 1.6-1.7 1.6H14.1c-.6 0-1.2.5-1.2 1.2 0 .6.5 1.2 1.1 1.2h18.1c.8.1 1.5.9 1.4 1.7 0 1-.8 1.8-1.8 1.8H19.3c-.6 0-1.2.5-1.2 1.2 0 .6.5 1.2 1.1 1.2h12.3c.9.1 1.5.9 1.5 1.7 0 1-.8 1.8-1.8 1.8H15.9c-.6 0-1.2.5-1.2 1.2 0 .6.5 1.2 1.1 1.2h1l-.4 4.2c-.1 1 .2 1.9.8 2.5.6.7 1.5 1.1 2.4 1.1h.9c.4 2.4 2.5 4.2 5.1 4.2s4.7-1.8 5.3-4.2H42c.9 0 1.7-.3 2.4-.9.6.6 1.4.9 2.3.9h.3c.4 2.4 2.5 4.2 5.1 4.2 2.6 0 4.7-1.8 5.3-4.2h.6c1.9 0 3.6-1.5 3.8-3.4l.7-7.9v-.4c0 .1 0 .1 0 0zM25.8 52.8c-1.6 0-2.9-1.3-2.9-2.9 0-1.6 1.4-2.9 3-2.9s2.9 1.3 2.9 2.9c0 1.6-1.4 2.9-3 2.9zm26.3 0c-1.6 0-2.9-1.3-2.9-2.9 0-1.6 1.4-2.9 3-2.9s2.9 1.3 2.9 2.9c-.1 1.6-1.4 2.9-3 2.9zm7.4-5.5c-.1.7-.7 1.2-1.4 1.2h-.8c-.5-2.3-2.6-4-5-4-2.5 0-4.6 1.7-5.2 4h-.2c-.3 0-.6-.1-.7-.3-.2-.2-.3-.5-.2-.8L47.5 31h3.4l-.5 6c-.1 1 .2 1.9.8 2.5.6.7 1.5 1.1 2.4 1.1h6.6l-.7 6.7z"/></svg>