<svg xmlns="http://www.w3.org/2000/svg" viewBox="0 0 73.8 73.8"><circle fill="#92C1BE" cx="36.9" cy="36.9" r="36.9"/><g fill="#FFF"><path d="M28.1 35.5c3.7 2.7 7.8 3.3 12.2 2.8-.5 1.8-.9 3.5-1.4 5.2-1.2 4.7-2.5 9.4-3.7 14.1-.2.7-.5.9-1.2.9h-5.3c-1.1 0-1.5-.4-1.2-1.6.5-2.2 1.2-4.4 1.7-6.6.4-1.5.8-2.9 1.2-4.4.5-1.8 1-3.7 1.5-5.6h-3.8c-.8 0-1.3-.5-1.1-1.3l.9-3.3c.1 0 .2-.1.2-.2zm24-8.8v-.5c.1-1.2-.3-2.3-.9-3.4-.8-1.3-2-2.2-3.5-2.6-1.7-.4-3.3-.4-4.8.5-1.5.8-2.5 2.1-3 3.8-.2.6-.3 1.2-.5 1.7-.4 1.1-1.4 1.8-2.6 1.9-1.2.2-2.3-.2-3.1-1.1-.6-.6-.8-1.4-.9-2.2-.2-1.4.1-2.8.6-4.1 1-2.3 2.5-4.1 4.9-5.1 1.7-.7 3.5-1.1 5.4-1 1.5.1 3 .5 4.3 1.3 1.1.7 2.1 1.6 2.8 2.7.5.8 1 1.6 1.3 2.5.3.8.5 1.7.5 2.5.1.9 0 1.9-.2 2.8 0 .2 0 .4-.3.3z"/><path d="M29.1 23.1v1c-.1.7.1 1.3.4 1.9.5 1.2 1.3 2.3 2.5 2.9.7.4 1.4.6 2.1.7.9.1 1.7.1 2.6-.1 1-.2 1.8-.7 2.6-1.3 1.2-1 1.8-2.3 2.1-3.8.3-2 1.9-3 3.7-2.9 1.5.1 2.9 1.1 3.2 2.8.4 2.5-.3 4.7-1.8 6.7-.6.8-1.2 1.5-2 2.1-.9.6-1.9 1.1-2.9 1.4-1.4.5-2.8.6-4.3.5-1.6-.1-3.1-.6-4.4-1.5-1.8-1.2-3-2.9-3.7-4.9-.5-1.3-.6-2.7-.5-4.2 0-.4.1-.8.2-1.1 0-.1.1-.2.2-.3-.1.1 0 .1 0 .1z"/></g></svg>