<svg xmlns="http://www.w3.org/2000/svg" xmlns:xlink="http://www.w3.org/1999/xlink" width="814.975" height="302.777" viewBox="0 0 814.975 302.777"><defs><path id="a" d="M0 0h814.975v302.777H0z"/></defs><clipPath id="b"><use xlink:href="#a" overflow="visible"/></clipPath><path clip-path="url(#b)" fill="#F39100" d="M201.31 257.07c-4.492-1.324-8.82-2.61-13.155-3.868-1.153-.335-1.77-.827-1.668-2.238.664-9.188 1.217-18.385 1.833-27.575.404-6.03.76-12.066 1.311-18.083.445-4.865 1.108-9.711 1.746-14.557.759-5.755 1.589-11.501 2.398-17.25.344-2.441.481-4.943 1.119-7.309 2.249-8.333 2.702-16.941 4.123-25.396 2.152-12.796 3.47-25.652 3.359-38.637-.01-1.2-.222-2.398-.306-3.599-.125-1.775-1.22-2.877-2.716-3.458-1.59-.618-3.028.124-3.938 1.399-2.712 3.803-5.588 7.533-7.86 11.593-3.079 5.502-4.405 11.64-5.439 17.847-1.123 6.736-2.61 13.411-3.78 20.139-2.256 12.975-4.546 25.946-4.437 39.201.04 4.837 1.447 8.936 4.92 12.386 2.861 2.844 3.015 6.439 2.161 10.134a1276.515 1276.515 0 0 1-3.991 16.743c-1.256 5.12-2.584 10.223-3.873 15.334-.767 3.047-1.519 6.096-2.226 8.935l-17.153-2.442c-.301-4.039-.579-8.095-.911-12.147-.84-10.267-1.744-20.527-2.543-30.797-.492-6.312-.939-12.631-1.225-18.953-.398-8.817 2.124-16.686 7.821-23.55 2.391-2.882 3.77-6.354 3.653-10.165-.148-4.829-.535-9.651-.835-14.475-.182-2.93-.382-5.86-.596-8.788-.682-9.359-1.374-18.716-2.066-28.073-.033-.459.012-.975-.186-1.357-.258-.496-.723-.883-1.098-1.318-.341.496-.951.977-.978 1.489-.218 4.141-.331 8.288-.467 12.434-.275 8.404-.542 16.809-.82 25.213-.017.536-.098 1.069-.15 1.603l-.436.033c-.206-.978-.535-1.948-.598-2.936-.573-8.963-1.075-17.932-1.651-26.896-.199-3.099-.508-6.194-.864-9.279-.062-.54-.608-1.024-.93-1.534-.306.503-.839.988-.882 1.514-.355 4.303-.675 8.611-.897 12.923-.421 8.166-.762 16.336-1.162 24.504-.027.552-.274 1.093-.797 1.62-1.464-13.499-1.679-27.047-2.71-40.531l-.69-.214c-.344.597-.912 1.164-.994 1.794-.371 2.85-.679 5.713-.872 8.58-.457 6.773-.797 13.553-1.263 20.325-.232 3.369-.637 6.726-.964 10.088l-.485.071c-.118-.408-.33-.815-.339-1.226-.154-6.735-.228-13.472-.433-20.205-.184-6.098-.487-12.193-.805-18.286-.02-.389-.611-.748-.937-1.122-.353.38-.953.721-1.017 1.145-.287 1.874-.465 3.769-.6 5.662-.569 7.981-1.092 15.966-1.666 23.947-.429 5.97-.782 11.949-1.405 17.9-.702 6.699 1.059 12.609 5.131 17.871 4.181 5.4 6.433 11.34 6.072 18.303-.622 12.019-.799 24.063-1.561 36.071-.583 9.172-1.779 18.305-2.709 27.454-.029.278-.135.549-.197.794l-16.003 1.471c-.523-2.062-1.085-4.147-1.578-6.249-1.376-5.864-2.769-11.726-4.069-17.607-1.249-5.657-2.485-11.32-3.555-17.013-1.528-8.125-2.756-16.308-4.382-24.411-1.466-7.307.504-13.489 4.982-19.246 2.614-3.359 4.881-7.01 7.082-10.662 1.927-3.196 2.665-6.829 2.883-10.529.997-16.891-5.06-30.642-18.596-40.879-7.66-5.794-15.401-4.491-21.703 2.865-5.878 6.862-8.73 15.004-9.574 23.996-.457 4.877-.354 9.674.573 14.428 1.521 7.796 5.375 14.287 11.51 19.394 3.429 2.854 6.989 5.58 10.184 8.68 3.183 3.088 4.573 7.104 4.918 11.57.385 4.984 1.147 9.939 1.627 14.918.326 3.378.487 6.774.655 10.165.399 8.054.763 16.107 1.134 24.161.288 6.271.564 12.541.843 18.812.017.395.002.79.002 1.068l-19.021 6.248c-.615-2.88-1.234-5.771-1.849-8.665-.965-4.546-1.944-9.088-2.885-13.638-.918-4.44-1.779-8.891-2.693-13.331-1.747-8.487-3.514-16.97-5.272-25.454-.582-2.808-1.167-5.616-1.738-8.426-.195-.956-.523-1.54-1.684-1.803-14.231-3.227-25.699-10.725-34.157-22.631-4.593-6.465-7.565-13.663-9.063-21.487-1.161-6.064-1.39-12.166-.495-18.216 1.972-13.344 7.885-24.708 17.972-33.776 7.004-6.295 15.058-10.585 24.272-12.729 4.673-1.087 9.365-1.786 14.155-1.556 1.342.065 1.851-.481 2.106-1.641 2.065-9.422 6.081-17.942 11.842-25.664 5.688-7.623 12.686-13.753 20.911-18.503a66.05 66.05 0 0 1 22.305-7.995c6.703-1.114 13.493-1.314 20.293-.385 17.771 2.429 32.424 10.532 43.975 24.174 5.364 6.334 9.264 13.546 12.01 21.414 2.317 6.64 3.251 13.493 3.769 20.441.064.852.175 1.378 1.192 1.745 7.484 2.698 14.281 6.587 20.076 12.097 5.878 5.588 10.3 12.103 13.447 19.648 3.924 9.41 5.024 19.105 3.692 29.04-1.333 9.938-5.27 18.932-11.537 26.805-5.79 7.276-12.965 12.892-21.542 16.456-3.977 1.653-8.285 2.531-12.475 3.637-1.232.324-1.958.593-2.141 2.106-.829 6.847-1.865 13.668-2.765 20.506-.826 6.271-1.54 12.555-2.366 18.824-.833 6.318-1.743 12.627-2.633 19.042"/><path clip-path="url(#b)" fill="#624639" d="M292.892 162.194h5.485l17.435 48.02h.15l17.285-48.02h5.411l-19.915 53.656h-5.936zm45.016 26.753c.451-9.093 6.838-13.001 15.706-13.001 6.839 0 14.279 2.104 14.279 12.476v20.591c0 1.803.901 2.854 2.78 2.854.526 0 1.128-.149 1.503-.3v3.982c-1.052.226-1.804.301-3.081.301-4.81 0-5.561-2.705-5.561-6.763h-.15c-3.307 5.034-6.688 7.891-14.128 7.891-7.14 0-13.001-3.532-13.001-11.348 0-10.897 10.596-11.272 20.816-12.476 3.908-.451 6.087-.976 6.087-5.26 0-6.388-4.584-7.966-10.145-7.966-5.862 0-10.22 2.705-10.371 9.018h-4.734zm25.25 5.711h-.15c-.601 1.127-2.705 1.503-3.983 1.729-8.041 1.427-18.036 1.353-18.036 8.941 0 4.735 4.209 7.666 8.642 7.666 7.215 0 13.602-4.585 13.527-12.174v-6.162zm14.28-32.464h4.734v53.656h-4.734zm21.345 14.879h7.891v3.983h-7.891v26.152c0 3.08.45 4.885 3.832 5.109 1.353 0 2.705-.075 4.059-.225v4.058c-1.429 0-2.782.15-4.209.15-6.313 0-8.493-2.104-8.417-8.717v-26.528h-6.764v-3.983h6.764v-11.647h4.735v11.648zm17.509 20.667c.076 6.913 3.683 15.255 12.776 15.255 6.914 0 10.672-4.058 12.175-9.92h4.733c-2.028 8.793-7.14 13.903-16.908 13.903-12.324 0-17.511-9.47-17.511-20.517 0-10.22 5.187-20.516 17.511-20.516 12.475 0 17.435 10.896 17.059 21.794h-29.835zm25.101-3.984c-.226-7.14-4.658-13.828-12.324-13.828-7.74 0-12.024 6.765-12.776 13.828h25.1zm11.198-31.562h4.734v53.656h-4.734zm13.904 0h4.733v53.656h-4.733zm13.903 0h4.733v7.59h-4.733v-7.59zm0 14.879h4.733v38.777h-4.733v-38.777zm13.752 0h4.734v6.688h.151c1.728-4.659 6.914-7.815 12.398-7.815 10.898 0 14.204 5.711 14.204 14.955v24.949h-4.734v-24.198c0-6.688-2.18-11.723-9.845-11.723-7.515 0-12.023 5.711-12.175 13.301v22.62h-4.734v-38.777zm39.981 11.874c.451-9.093 6.84-13.001 15.707-13.001 6.838 0 14.278 2.104 14.278 12.476v20.591c0 1.803.902 2.854 2.781 2.854.525 0 1.127-.149 1.503-.3v3.982c-1.052.226-1.804.301-3.081.301-4.81 0-5.562-2.705-5.562-6.763h-.149c-3.308 5.034-6.689 7.891-14.129 7.891-7.14 0-13.001-3.532-13.001-11.348 0-10.897 10.596-11.272 20.816-12.476 3.907-.451 6.088-.976 6.088-5.26 0-6.388-4.585-7.966-10.146-7.966-5.861 0-10.22 2.705-10.37 9.018h-4.735zm25.252 5.711h-.15c-.603 1.127-2.705 1.503-3.984 1.729-8.041 1.427-18.035 1.353-18.035 8.941 0 4.735 4.208 7.666 8.643 7.666 7.215 0 13.602-4.585 13.527-12.174v-6.162zm30.213-32.464h42.534v4.358h-18.713v49.298h-5.108v-49.298h-18.713zm37.877 26.753c.451-9.093 6.84-13.001 15.707-13.001 6.838 0 14.278 2.104 14.278 12.476v20.591c0 1.803.902 2.854 2.781 2.854.525 0 1.127-.149 1.503-.3v3.982c-1.052.226-1.804.301-3.081.301-4.81 0-5.562-2.705-5.562-6.763h-.149c-3.308 5.034-6.689 7.891-14.129 7.891-7.14 0-13.001-3.532-13.001-11.348 0-10.897 10.596-11.272 20.816-12.476 3.907-.451 6.088-.976 6.088-5.26 0-6.388-4.585-7.966-10.146-7.966-5.861 0-10.22 2.705-10.37 9.018h-4.735zm25.252 5.711h-.15c-.603 1.127-2.705 1.503-3.984 1.729-8.041 1.427-18.035 1.353-18.035 8.941 0 4.735 4.208 7.666 8.643 7.666 7.215 0 13.602-4.585 13.527-12.174v-6.162zm37.425-6.238c-.226-5.86-4.733-8.492-10.146-8.492-4.208 0-9.167 1.654-9.167 6.688 0 4.209 4.809 5.712 8.041 6.538l6.312 1.429c5.41.826 11.048 3.983 11.048 10.746 0 8.417-8.343 11.648-15.557 11.648-9.018 0-15.18-4.208-15.931-13.678h4.733c.375 6.389 5.109 9.694 11.423 9.694 4.434 0 10.597-1.954 10.597-7.365 0-4.509-4.209-6.012-8.493-7.062l-6.087-1.354c-6.162-1.652-10.821-3.757-10.821-10.37 0-7.891 7.74-10.896 14.579-10.896 7.74 0 13.903 4.058 14.203 12.475h-4.734zm20.441-11.347h7.893v3.983h-7.893v26.152c0 3.08.451 4.885 3.833 5.109a36.84 36.84 0 0 0 4.06-.225v4.058c-1.43 0-2.782.15-4.209.15-6.313 0-8.492-2.104-8.417-8.717v-26.528h-6.764v-3.983h6.764v-11.647h4.733v11.648zm17.511 20.667c.076 6.913 3.683 15.255 12.776 15.255 6.914 0 10.672-4.058 12.175-9.92h4.733c-2.028 8.793-7.14 13.903-16.908 13.903-12.324 0-17.511-9.47-17.511-20.517 0-10.22 5.187-20.516 17.511-20.516 12.475 0 17.435 10.896 17.059 21.794h-29.835zm25.1-3.984c-.226-7.14-4.658-13.828-12.324-13.828-7.74 0-12.024 6.765-12.776 13.828h25.1zM310.594 96.119h-12.775v-9.77h12.775v9.77zm-12.776 4.885h12.775v39.002h-12.775v-39.002zm21.794-.001h12.174v4.509h.15c2.48-3.682 6.238-5.636 10.747-5.636 12.249 0 17.434 10.521 17.434 21.492 0 10.146-5.41 19.765-16.457 19.765-4.81 0-8.493-1.804-11.122-5.336h-.151v17.285h-12.775v-52.079zm12.325 19.088c0 6.838 1.954 11.272 7.741 11.272 5.711 0 7.665-5.937 7.665-11.272 0-4.96-1.954-10.446-7.59-10.446-3.458.001-7.816 2.406-7.816 10.446m45.918 3.532c.225 5.336 3.306 8.868 8.717 8.868 3.081 0 6.087-1.428 7.289-4.283h11.95c-2.33 9.017-10.672 12.925-19.39 12.925-12.7 0-21.342-7.665-21.342-20.741 0-11.949 9.544-20.516 21.042-20.516 13.978 0 20.966 10.521 20.365 23.747h-28.631zm15.856-7.139c-.225-4.358-3.307-7.966-7.59-7.966-4.509 0-7.515 3.232-8.266 7.966h15.856zm19.616-15.481h12.399v6.838h.151c1.879-4.96 6.236-7.589 11.723-7.589.977 0 2.03.075 3.006.3V112.2c-1.653-.451-3.156-.751-4.884-.751-6.313 0-9.62 4.358-9.62 9.243v19.313h-12.775v-39.002zm31.04 12.024c.225-5.11 2.63-8.417 6.087-10.446 3.457-1.954 7.966-2.705 12.398-2.705 9.243 0 18.188 2.029 18.188 13.076v17.059c0 3.306 0 6.914 1.503 9.995h-12.852c-.45-1.202-.602-2.405-.752-3.682-3.307 3.456-8.19 4.809-12.851 4.809-7.439 0-13.3-3.758-13.3-11.799 0-12.7 13.827-11.723 22.693-13.527 2.181-.45 3.383-1.202 3.383-3.607 0-2.931-3.531-4.058-6.162-4.058-3.533 0-5.786 1.579-6.389 4.885h-11.946zm16.531 20.216c6.089 0 8.116-3.457 7.815-11.498-1.802 1.127-5.109 1.353-7.89 2.104-2.856.677-5.261 1.879-5.261 4.96.001 3.156 2.482 4.434 5.336 4.434m29.01-46.893h12.774v53.657h-12.774z"/></svg>