<?xml version="1.0" encoding="utf-8"?>
<!-- Generator: Adobe Illustrator 17.0.0, SVG Export Plug-In . SVG Version: 6.00 Build 0)  -->
<!DOCTYPE svg PUBLIC "-//W3C//DTD SVG 1.1//EN" "http://www.w3.org/Graphics/SVG/1.1/DTD/svg11.dtd">
<svg version="1.1" id="Слой_1" xmlns="http://www.w3.org/2000/svg" xmlns:xlink="http://www.w3.org/1999/xlink" x="0px" y="0px"
	 width="200px" height="200px" viewBox="0 0 200 200" style="enable-background:new 0 0 200 200;" xml:space="preserve">
<style type="text/css">
	.st0{fill-rule:evenodd;clip-rule:evenodd;}
</style>
<path class="st0" d="M100.5,194.5c-52.467,0-95-42.533-95-95s42.533-95,95-95s95,42.533,95,95S152.967,194.5,100.5,194.5z
	 M153.871,73.328l-0.257-0.514c-2.57-2.827-9.253-9.508-13.365-9.508h-23.903c-1.028-6.424-6.683-11.307-13.365-11.307h-6.682
	c-6.683,0-12.337,4.883-13.365,11.307h-21.59c-4.112,0-10.795,6.681-13.365,9.508l-0.257,0.514c-0.771,1.285-0.771,2.827,0,4.112
	c0.514,1.285,1.799,2.056,3.084,2.056h99.724c1.542,0,2.57-0.771,3.341-2.056C154.642,76.155,154.642,74.613,153.871,73.328z
	 M157.727,102.88h-6.683c0-1.285,0.514-2.57,1.285-3.598l3.598-6.167c0.771-1.285,0.771-2.827,0-3.855
	c-0.771-1.285-2.056-2.056-3.341-2.056H47.722c-1.285,0-2.827,0.771-3.341,2.056c-0.771,1.285-0.771,2.827,0,3.855l3.598,6.167
	c0.771,1.028,1.028,2.313,1.285,3.598h-6.683c-3.855,0-6.682,3.084-6.682,6.681c0,3.598,3.084,6.681,6.682,6.681h6.683v4.626h17.991
	c1.285,0,2.313,1.028,2.313,2.313c0,1.285-1.028,2.313-2.313,2.313H49.264v4.626h24.931c1.285,0,2.313,1.028,2.313,2.313
	c0,1.285-1.028,2.313-2.313,2.313H49.521c1.285,6.424,6.939,11.307,13.622,11.307h73.765c7.711,0,13.879-6.167,13.879-14.134V116.5
	h6.683c3.855,0,6.682-3.084,6.682-6.681C164.152,106.221,161.582,102.88,157.727,102.88z M157.727,111.874h-6.683v-4.625h6.683
	c1.285,0,2.313,1.028,2.313,2.313C160.04,110.846,159.012,111.874,157.727,111.874z M62.886,116.243H53.89v-4.626h8.996
	c1.285,0,2.313,1.028,2.313,2.313C64.942,115.472,63.914,116.243,62.886,116.243z M40.011,109.562c0-1.285,1.028-2.313,2.313-2.313
	h6.683v4.625h-6.683C41.039,111.874,40.011,110.846,40.011,109.562z M61.087,68.188h21.59h33.927h23.646
	c1.285,0,5.14,3.084,8.996,6.681H52.348C55.947,71.272,60.059,68.188,61.087,68.188z M96.299,56.881h6.682
	c4.112,0,7.711,2.827,8.739,6.681H87.303C88.588,59.965,91.929,56.881,96.299,56.881z"/>
</svg>
