<?xml version="1.0" encoding="utf-8"?>
<!-- Generator: Adobe Illustrator 17.0.0, SVG Export Plug-In . SVG Version: 6.00 Build 0)  -->
<!DOCTYPE svg PUBLIC "-//W3C//DTD SVG 1.1//EN" "http://www.w3.org/Graphics/SVG/1.1/DTD/svg11.dtd">
<svg version="1.1" id="Слой_1" xmlns="http://www.w3.org/2000/svg" xmlns:xlink="http://www.w3.org/1999/xlink" x="0px" y="0px"
	 width="200px" height="200px" viewBox="0 0 200 200" style="enable-background:new 0 0 200 200;" xml:space="preserve">
<style type="text/css">
	.st0{fill-rule:evenodd;clip-rule:evenodd;}
</style>
<path class="st0" d="M100.5,194.5c-52.467,0-95-42.533-95-95s42.533-95,95-95s95,42.533,95,95S152.967,194.5,100.5,194.5z
	 M152.75,126.37c0-1.026-0.772-1.795-1.544-2.051c-2.831-0.513-5.662-3.333-6.177-6.41c-0.257-1.282,0-2.308,0.515-3.077
	c0.257-0.769,1.287-1.026,2.574-1.026c0.515,0,1.03,0.256,1.544,0.513c0.515,0.256,1.287,0.256,1.802-0.256
	c0.515-0.256,1.03-1.026,1.03-1.538v-4.359c0-4.102-2.059-8.205-5.405-10.769L112.855,65.09c-0.772-0.769-1.802-0.769-2.574,0
	c-0.515,0.513-1.544,0.513-2.574,0.256c-2.317-0.769-4.633-3.333-4.633-5.897c0-0.513,0-1.026,0.257-1.282
	c0.515-0.769,0.257-1.795-0.515-2.308l-5.92-5.641c0,0,0,0-0.257-0.256c-4.633-3.333-10.038-4.615-14.414-2.82L53.655,61.5
	c-3.346,1.538-5.405,4.872-5.405,8.461v30.769c0,0.513,0.257,1.026,0.772,1.539c0.515,0.256,1.03,0.513,1.544,0.513
	c0.515,0,1.287,0,2.059,0.256c2.831,1.026,5.405,4.102,5.405,6.923c0,2.308-1.802,3.59-4.376,2.82
	c-0.772-0.256-1.544-0.769-2.316-1.282c-0.515-0.513-1.287-0.513-2.059-0.256c-0.772,0.256-1.03,1.026-1.03,1.795v4.359
	c0,4.102,2.831,7.948,6.95,8.974l85.968,25.128c0.772,0.256,1.544,0.256,2.316,0.256c2.317,0,4.633-1.026,6.435-2.564
	c1.802-1.795,2.831-4.102,2.831-6.41V126.37z M101.53,80.986c-0.772-0.256-1.544-0.256-2.316-0.256
	c-2.574,0-4.633,1.282-5.405,3.333L54.17,72.269c-1.287-0.256-1.802-1.026-2.059-2.564v-0.256c0.257-2.051,1.287-3.59,3.089-4.359
	l29.085-14.102c0.772-0.256,1.802-0.513,2.831-0.513c2.574,0,5.148,1.026,7.464,2.82l4.89,4.615c0,0.513-0.257,1.026-0.257,1.538
	c0,4.102,3.089,8.205,7.207,9.487c1.544,0.513,3.346,0.513,4.633,0l31.402,29.486l-33.976-10
	C107.707,85.089,104.876,82.012,101.53,80.986z M62.664,81.756c0.515,0,1.287,0,1.802,0.256c3.089,1.026,5.405,4.103,5.405,7.179
	c0,2.82-2.059,4.872-4.89,4.872c-0.515,0-1.287,0-1.802-0.256c-3.089-1.026-5.405-4.103-5.405-7.179
	C57.773,83.807,59.832,81.756,62.664,81.756z M71.672,108.678c0.772,0,1.544,0,2.316,0.256c3.861,1.282,6.95,5.385,6.95,9.23
	c0,3.59-2.317,6.154-5.92,6.154c-0.772,0-1.544,0-2.316-0.256c-3.861-1.282-6.95-5.385-6.95-9.231
	C65.752,111.242,68.326,108.678,71.672,108.678z M83.512,102.525c0-0.256,0.257-0.256,0.257-0.256c0-0.256,0.257-0.256,0.257-0.513
	c0.257-0.256,0.257-0.513,0.515-0.513c0.257-0.256,0.257-0.256,0.515-0.513c0.257,0,0.257-0.256,0.515-0.256
	c0.257-0.256,0.515-0.513,0.772-0.513c1.03-0.769,2.317-1.026,3.861-1.026c1.03,0,2.059,0.256,3.089,0.513
	c0.515,0.256,1.03,0.513,1.544,0.769c0.257,0,0.515,0.256,0.515,0.256c0.257,0.256,0.515,0.256,1.03,0.513
	c0.257,0.256,0.515,0.256,0.772,0.513c0.257,0.256,0.515,0.256,0.515,0.513c0.515,0.513,1.03,0.769,1.287,1.282
	c0.257,0.256,0.257,0.256,0.515,0.513c0.257,0.256,0.515,0.513,0.772,0.769c0.257,0.256,0.257,0.513,0.515,0.513
	c0.257,0.256,0.257,0.513,0.515,0.769c0.257,0.513,0.515,1.026,0.772,1.538c0.515,1.282,0.772,2.82,0.772,4.102
	c0,4.359-3.089,7.692-7.464,7.692c-1.03,0-2.059-0.256-3.089-0.513c-5.405-1.538-9.523-7.179-9.523-12.307
	c0-1.282,0.257-2.564,0.772-3.59V102.525z M98.184,107.396l-0.257-0.256c-0.515-0.769-1.03-1.538-1.544-2.051
	c-0.772-0.513-1.287-1.282-2.316-1.538h-0.257c-0.515-0.256-0.772-0.256-1.287-0.513c-0.515-0.256-0.772-0.256-1.287-0.256h-0.257
	c-0.772,0-1.544,0-2.059,0.513c-0.257,0.256-0.515,0.513-0.772,0.769c0.772,1.795,2.831,3.846,5.405,4.359
	c0.515,0.256,1.287,0.256,1.802,0.256c1.03,0,2.059-0.513,2.831-1.026V107.396z M93.55,114.832c0.515,0.256,1.287,0.256,1.802,0.256
	c2.059,0,3.346-1.282,3.603-3.333c-1.03,0.513-2.317,0.769-3.603,0.769c-1.03,0.256-2.059,0-3.089-0.256
	c-1.802-0.513-3.346-1.539-4.633-2.82C88.66,111.755,90.977,114.063,93.55,114.832z M102.559,93.038
	c0-0.256-0.515-0.256-0.772-0.256c-0.257,0-0.515-0.256-0.772-0.256c-1.802-1.026-3.089-2.821-3.604-4.615c0-0.256,0-0.513,0-0.769
	v-0.256c0-1.282,0.772-2.051,2.059-2.051c0.257,0,0.772,0,1.287,0.256c2.316,0.769,4.118,3.077,4.376,5.384v0.513
	c0,0.256,0,0.513-0.257,0.769v0.256c0,0.256-0.257,0.256-0.257,0.513c0,0.256-0.257,0.256-0.257,0.256s0,0-0.257,0
	c0,0-0.257,0.256-0.515,0.256c-0.257,0-0.515,0-0.772,0H102.559z M112.34,103.037c0.515,0,1.03,0,1.544,0.256
	c2.831,0.769,5.148,3.846,5.148,6.667c0,2.564-1.802,4.615-4.633,4.615c-0.515,0-1.03,0-1.544-0.256
	c-2.831-0.769-5.148-3.846-5.148-6.667C107.707,104.832,109.509,103.037,112.34,103.037z M113.884,126.37
	c0.515,0,1.03,0,1.544,0.256c2.831,0.769,5.148,3.846,5.148,6.667c-0.257,2.564-2.059,4.615-4.633,4.615
	c-0.515,0-1.03,0-1.544-0.256c-2.831-0.769-5.148-3.846-5.148-6.666C109.251,128.421,111.053,126.37,113.884,126.37z
	 M126.754,112.524c0.772,0,1.544,0,2.317,0.256c3.861,1.282,6.949,5.384,6.949,9.231c0,3.59-2.316,6.154-5.92,6.154
	c-0.772,0-1.544,0-2.316-0.256c-3.861-1.282-6.95-5.384-6.95-9.231C120.834,115.088,123.408,112.524,126.754,112.524z"/>
</svg>
