<?xml version="1.0" encoding="utf-8"?>
<!-- Generator: Adobe Illustrator 17.0.0, SVG Export Plug-In . SVG Version: 6.00 Build 0)  -->
<!DOCTYPE svg PUBLIC "-//W3C//DTD SVG 1.1//EN" "http://www.w3.org/Graphics/SVG/1.1/DTD/svg11.dtd">
<svg version="1.1" id="Слой_1" xmlns="http://www.w3.org/2000/svg" xmlns:xlink="http://www.w3.org/1999/xlink" x="0px" y="0px"
	 width="200px" height="200px" viewBox="0 0 200 200" style="enable-background:new 0 0 200 200;" xml:space="preserve">
<style type="text/css">
	.st0{fill-rule:evenodd;clip-rule:evenodd;}
</style>
<path class="st0" d="M100.5,194.5c-52.467,0-95-42.533-95-95s42.533-95,95-95s95,42.533,95,95S152.967,194.5,100.5,194.5z
	 M134.037,82.22l-6.93-39.718H72.689L65.758,82.22c-2.31,14.701,3.337,29.66,16.171,37.397c4.62,2.837,9.754,4.384,15.401,4.9
	v26.307l-24.642,2.837v2.837h54.674v-2.837l-24.899-2.837v-26.307c5.647-0.258,11.037-2.063,15.401-4.9
	C130.957,111.879,136.604,96.921,134.037,82.22z M115.042,115.232c-4.364,2.579-9.754,4.127-15.144,4.127
	c-5.39,0-10.781-1.548-15.145-4.127c-2.567-1.547-5.134-3.611-6.931-5.932c-1.797-2.321-3.594-4.9-4.62-7.737
	c-2.31-5.674-3.08-11.864-2.053-18.312l5.904-35.076h45.434l6.16,35.076c1.027,6.448,0.257,12.638-2.053,18.312
	c-1.284,2.837-2.824,5.416-4.62,7.737C119.919,111.622,117.609,113.685,115.042,115.232z M123.256,84.283l-0.77-4.385
	c-0.257-0.258-0.77-0.516-1.027-0.774c-0.77-1.032-2.053-1.547-3.594-1.805c-1.284-0.258-2.824-0.516-4.62-0.516
	c-1.54,0-3.08,0.258-4.62,0.516c-1.283,0.258-2.567,0.774-3.85,1.547c-2.053,1.29-3.85,3.353-5.134,4.9
	c-1.283,1.547-3.08,3.611-5.134,4.9c-1.027,0.516-2.31,1.032-3.85,1.548c-1.283,0.258-2.824,0.516-4.62,0.516
	s-3.08-0.258-4.62-0.516c-1.283-0.258-2.567-0.774-3.85-1.548c-0.77-0.516-1.54-1.032-2.31-1.805
	c-0.257,4.385,0.257,8.769,2.053,12.638c1.027,2.321,2.31,4.384,3.85,6.19c1.54,1.805,3.594,3.611,5.647,4.9
	c3.85,2.321,7.957,3.353,12.578,3.353c4.364,0,8.727-1.29,12.578-3.353c2.054-1.29,4.107-2.837,5.647-4.9
	c1.54-1.805,2.823-3.869,3.85-6.19C123.513,94.857,124.026,89.699,123.256,84.283z"/>
</svg>
