<?xml version="1.0" encoding="utf-8"?>
<!-- Generator: Adobe Illustrator 17.0.0, SVG Export Plug-In . SVG Version: 6.00 Build 0)  -->
<!DOCTYPE svg PUBLIC "-//W3C//DTD SVG 1.1//EN" "http://www.w3.org/Graphics/SVG/1.1/DTD/svg11.dtd">
<svg version="1.1" id="Слой_1" xmlns="http://www.w3.org/2000/svg" xmlns:xlink="http://www.w3.org/1999/xlink" x="0px" y="0px"
	 width="200px" height="200px" viewBox="0 0 200 200" style="enable-background:new 0 0 200 200;" xml:space="preserve">
<g>
	<g>
		<path d="M100.5,4.5c-52.467,0-95,42.533-95,95c0,52.467,42.533,95,95,95s95-42.533,95-95C195.5,47.033,152.967,4.5,100.5,4.5z
			 M72.82,50.222c0-2.566,2.307-4.876,4.869-4.876h45.618c2.563,0,4.869,2.31,4.869,4.876v2.053c0,2.567-2.307,4.876-4.869,4.876
			H77.689c-2.819,0-4.869-2.31-4.869-4.876V50.222z M139.452,134.403c0,10.523-8.714,19.249-19.221,19.249H80.765
			c-10.508,0-19.221-8.726-19.221-19.249v-48.25c0-6.93,3.588-12.832,8.713-16.169c0.256-2.566,1.538-4.876,3.588-6.159v-3.08h53.05
			v3.08c2.05,1.283,3.332,3.593,3.588,6.159c5.382,3.593,8.714,9.496,8.97,16.169V134.403z M111.774,84.613H63.081
			c0,0.513,0,0.77,0,1.283v47.737h48.693c2.819,0,4.869-1.797,4.869-4.106V88.72C116.644,86.41,114.337,84.613,111.774,84.613z"/>
	</g>
</g>
</svg>
