<?xml version="1.0" encoding="utf-8"?>
<!-- Generator: Adobe Illustrator 20.0.0, SVG Export Plug-In . SVG Version: 6.00 Build 0)  -->
<!DOCTYPE svg PUBLIC "-//W3C//DTD SVG 1.1//EN" "http://www.w3.org/Graphics/SVG/1.1/DTD/svg11.dtd">
<svg version="1.1" id="Livello_1" xmlns="http://www.w3.org/2000/svg" xmlns:xlink="http://www.w3.org/1999/xlink" x="0px" y="0px"
	 viewBox="0 0 73.8 73.8" enable-background="new 0 0 73.8 73.8" xml:space="preserve">
<circle fill="#92C1BE" cx="36.9" cy="36.9" r="36.9"/>
<g>
	<path fill="#FFFFFF" d="M28.1,35.5c3.7,2.7,7.8,3.3,12.2,2.8c-0.5,1.8-0.9,3.5-1.4,5.2c-1.2,4.7-2.5,9.4-3.7,14.1
		c-0.2,0.7-0.5,0.9-1.2,0.9c-1.8,0-3.5,0-5.3,0c-1.1,0-1.5-0.4-1.2-1.6c0.5-2.2,1.2-4.4,1.7-6.6c0.4-1.5,0.8-2.9,1.2-4.4
		c0.5-1.8,1-3.7,1.5-5.6c-0.1,0-0.2,0-0.4,0c-1.1,0-2.3,0-3.4,0c-0.8,0-1.3-0.5-1.1-1.3c0.3-1.1,0.6-2.2,0.9-3.3
		C28,35.7,28.1,35.6,28.1,35.5z"/>
	<path fill="#FFFFFF" d="M52.1,26.7c0-0.2,0-0.3,0-0.5c0.1-1.2-0.3-2.3-0.9-3.4c-0.8-1.3-2-2.2-3.5-2.6c-1.7-0.4-3.3-0.4-4.8,0.5
		c-1.5,0.8-2.5,2.1-3,3.8c-0.2,0.6-0.3,1.2-0.5,1.7C39,27.3,38,28,36.8,28.1c-1.2,0.2-2.3-0.2-3.1-1.1c-0.6-0.6-0.8-1.4-0.9-2.2
		c-0.2-1.4,0.1-2.8,0.6-4.1c1-2.3,2.5-4.1,4.9-5.1c1.7-0.7,3.5-1.1,5.4-1c1.5,0.1,3,0.5,4.3,1.3c1.1,0.7,2.1,1.6,2.8,2.7
		c0.5,0.8,1,1.6,1.3,2.5c0.3,0.8,0.5,1.7,0.5,2.5c0.1,0.9,0,1.9-0.2,2.8C52.4,26.6,52.4,26.8,52.1,26.7z"/>
	<path fill="#FFFFFF" d="M29.1,23.1c0,0.3,0,0.6,0,1c-0.1,0.7,0.1,1.3,0.4,1.9c0.5,1.2,1.3,2.3,2.5,2.9c0.7,0.4,1.4,0.6,2.1,0.7
		c0.9,0.1,1.7,0.1,2.6-0.1c1-0.2,1.8-0.7,2.6-1.3c1.2-1,1.8-2.3,2.1-3.8c0.3-2,1.9-3,3.7-2.9c1.5,0.1,2.9,1.1,3.2,2.8
		c0.4,2.5-0.3,4.7-1.8,6.7c-0.6,0.8-1.2,1.5-2,2.1c-0.9,0.6-1.9,1.1-2.9,1.4c-1.4,0.5-2.8,0.6-4.3,0.5c-1.6-0.1-3.1-0.6-4.4-1.5
		c-1.8-1.2-3-2.9-3.7-4.9c-0.5-1.3-0.6-2.7-0.5-4.2c0-0.4,0.1-0.8,0.2-1.1c0-0.1,0.1-0.2,0.2-0.3C29,23.1,29.1,23.1,29.1,23.1z"/>
</g>
</svg>
