<?xml version="1.0" encoding="utf-8"?>
<!-- Generator: Adobe Illustrator 20.0.0, SVG Export Plug-In . SVG Version: 6.00 Build 0)  -->
<!DOCTYPE svg PUBLIC "-//W3C//DTD SVG 1.1//EN" "http://www.w3.org/Graphics/SVG/1.1/DTD/svg11.dtd">
<svg version="1.1" id="Livello_1" xmlns="http://www.w3.org/2000/svg" xmlns:xlink="http://www.w3.org/1999/xlink" x="0px" y="0px"
	 viewBox="0 0 73.8 73.8" enable-background="new 0 0 73.8 73.8" xml:space="preserve">
<g>
	<polygon fill="#FFFFFF" points="15.5,23.6 15.5,46.5 28.2,35 	"/>
	<polygon fill="#FFFFFF" points="50.3,21.7 17.6,21.7 33.9,36.4 	"/>
	<path fill="#FFFFFF" d="M42.3,37.4c1.5-0.7,3.2-1.1,5-1.1c1.8,0,3.5,0.4,5.1,1.1V23.6L39.7,35L42.3,37.4z"/>
	<path fill="#FFFFFF" d="M39.8,38.9l-2.2-2l-3.6,3.3l-3.6-3.3L17.6,48.3h17.6C35.2,44.5,37,41.1,39.8,38.9z"/>
	<path fill="#FFFFFF" d="M47.3,39.1c-5.1,0-9.3,4.2-9.3,9.3s4.2,9.3,9.3,9.3s9.3-4.2,9.3-9.3S52.4,39.1,47.3,39.1z M46.1,53.4
		L40.6,48l2-2l3.5,3.5l5.2-5.2l2,2L46.1,53.4z"/>
</g>
<circle fill="#CA4842" cx="36.9" cy="36.9" r="36.9"/>
<path fill="#FFFFFF" d="M62.5,39.4C62.5,39.4,62.5,39.4,62.5,39.4c0-0.6-0.5-1.1-1.1-1.1h-0.3l-4.6-8.9c-0.2-0.4-0.6-0.6-1-0.6
	l-7.9,0l0.3-2.4c0.1-1-0.2-1.9-0.8-2.5c-0.6-0.7-1.5-1.1-2.4-1.1H20c-0.6,0-1.1,0.5-1.2,1.1l-0.2,2h14c0.9,0,1.6,0.7,1.6,1.6
	c0,0.9-0.8,1.6-1.7,1.6h-4.7c0,0,0,0,0,0H14.1c-0.6,0-1.2,0.5-1.2,1.2c0,0.6,0.5,1.2,1.1,1.2h18.1c0.8,0.1,1.5,0.9,1.4,1.7
	c0,1-0.8,1.8-1.8,1.8H19.3c-0.6,0-1.2,0.5-1.2,1.2c0,0.6,0.5,1.2,1.1,1.2h12.3c0.9,0.1,1.5,0.9,1.5,1.7c0,1-0.8,1.8-1.8,1.8H17.1v0
	h-1.2c-0.6,0-1.2,0.5-1.2,1.2c0,0.6,0.5,1.2,1.1,1.2h1l-0.4,4.2c-0.1,1,0.2,1.9,0.8,2.5c0.6,0.7,1.5,1.1,2.4,1.1h0.9
	c0.4,2.4,2.5,4.2,5.1,4.2s4.7-1.8,5.3-4.2h11.1c0.9,0,1.7-0.3,2.4-0.9c0.6,0.6,1.4,0.9,2.3,0.9H47c0.4,2.4,2.5,4.2,5.1,4.2
	c2.6,0,4.7-1.8,5.3-4.2H58c1.9,0,3.6-1.5,3.8-3.4l0.7-7.9C62.5,39.5,62.5,39.5,62.5,39.4C62.5,39.5,62.5,39.5,62.5,39.4
	C62.5,39.4,62.5,39.4,62.5,39.4z M25.8,52.8c-1.6,0-2.9-1.3-2.9-2.9c0-1.6,1.4-2.9,3-2.9s2.9,1.3,2.9,2.9
	C28.8,51.5,27.4,52.8,25.8,52.8z M52.1,52.8c-1.6,0-2.9-1.3-2.9-2.9c0-1.6,1.4-2.9,3-2.9c1.6,0,2.9,1.3,2.9,2.9
	C55,51.5,53.7,52.8,52.1,52.8z M59.5,47.3c-0.1,0.7-0.7,1.2-1.4,1.2h-0.8c-0.5-2.3-2.6-4-5-4c-2.5,0-4.6,1.7-5.2,4h-0.2
	c-0.3,0-0.6-0.1-0.7-0.3c-0.2-0.2-0.3-0.5-0.2-0.8l1.5-16.4l3.4,0l-0.5,6c-0.1,1,0.2,1.9,0.8,2.5c0.6,0.7,1.5,1.1,2.4,1.1h6.6
	L59.5,47.3z"/>
</svg>
