<?xml version="1.0" encoding="utf-8"?>
<!-- Generator: Adobe Illustrator 20.0.0, SVG Export Plug-In . SVG Version: 6.00 Build 0)  -->
<!DOCTYPE svg PUBLIC "-//W3C//DTD SVG 1.1//EN" "http://www.w3.org/Graphics/SVG/1.1/DTD/svg11.dtd">
<svg version="1.1" id="Livello_1" xmlns="http://www.w3.org/2000/svg" xmlns:xlink="http://www.w3.org/1999/xlink" x="0px" y="0px"
	 viewBox="0 0 73.8 73.8" enable-background="new 0 0 73.8 73.8" xml:space="preserve">
<circle fill="#5A60A6" cx="36.9" cy="36.9" r="36.9"/>
<g>
	<path fill="#FFFFFF" d="M33,43c-0.7-0.2-1.3-0.6-1.8-1.1c0.4,0.9,1.3,1.8,2.3,2.1c0.2,0.1,0.5,0.1,0.7,0.1c0.8,0,1.3-0.5,1.4-1.3
		c-0.4,0.2-0.9,0.3-1.4,0.3C33.8,43.2,33.4,43.1,33,43z"/>
	<path fill="#FFFFFF" d="M33.5,41.5c0.2,0.1,0.5,0.1,0.7,0.1c0.4,0,0.8-0.2,1.1-0.4c0,0,0-0.1,0-0.1c0,0-0.1-0.1-0.1-0.1
		c-0.2-0.3-0.4-0.6-0.6-0.8c0,0,0,0,0,0c-0.3-0.2-0.5-0.5-0.9-0.6c0,0-0.1,0-0.1,0c-0.2-0.1-0.3-0.1-0.5-0.2
		c-0.2-0.1-0.3-0.1-0.5-0.1c0,0-0.1,0-0.1,0c-0.3,0-0.6,0-0.8,0.2c0,0,0,0,0,0c-0.1,0.1-0.2,0.2-0.3,0.3
		C31.7,40.5,32.5,41.3,33.5,41.5z"/>
	<path fill="#FFFFFF" d="M54.7,43.6c0.2,0,0.4,0.1,0.6,0.2c0.2,0.1,0.5,0.1,0.7-0.1c0.2-0.1,0.4-0.4,0.4-0.6v-1.7
		c0-1.6-0.8-3.2-2.1-4.2L41,24.6c-0.3-0.3-0.7-0.3-1,0c-0.2,0.2-0.6,0.2-1,0.1c-0.9-0.3-1.8-1.3-1.8-2.3c0-0.2,0-0.4,0.1-0.5
		c0.2-0.3,0.1-0.7-0.2-0.9l-2.3-2.2c0,0,0,0-0.1-0.1c-1.8-1.3-3.9-1.8-5.6-1.1L18,23.2c-1.3,0.6-2.1,1.9-2.1,3.3v12
		c0,0.2,0.1,0.4,0.3,0.6c0.2,0.1,0.4,0.2,0.6,0.2c0.2,0,0.5,0,0.8,0.1c1.1,0.4,2.1,1.6,2.1,2.7c0,0.9-0.7,1.4-1.7,1.1
		c-0.3-0.1-0.6-0.3-0.9-0.5c-0.2-0.2-0.5-0.2-0.8-0.1c-0.3,0.1-0.4,0.4-0.4,0.7V45c0,1.6,1.1,3.1,2.7,3.5l33.4,9.8
		c0.3,0.1,0.6,0.1,0.9,0.1c0.9,0,1.8-0.4,2.5-1c0.7-0.7,1.1-1.6,1.1-2.5v-6.4c0-0.4-0.3-0.7-0.6-0.8c-1.1-0.2-2.2-1.3-2.4-2.5
		c-0.1-0.5,0-0.9,0.2-1.2C53.8,43.7,54.2,43.6,54.7,43.6z M36.7,35.4c-0.1,0-0.2-0.1-0.3-0.1c-0.7-0.4-1.2-1.1-1.4-1.8
		c0-0.1,0-0.2,0-0.3c0,0,0-0.1,0-0.1c0-0.5,0.3-0.8,0.8-0.8c0.1,0,0.3,0,0.5,0.1c0.9,0.3,1.6,1.2,1.7,2.1c0,0,0,0,0,0l0,0.2
		c0,0.1,0,0.2-0.1,0.3c0,0,0,0.1,0,0.1c0,0.1-0.1,0.1-0.1,0.2c0,0.1-0.1,0.1-0.1,0.1c0,0,0,0-0.1,0c0,0-0.1,0.1-0.2,0.1
		c-0.1,0-0.2,0-0.3,0c0,0-0.1,0-0.1,0C37,35.4,36.8,35.4,36.7,35.4z M18.6,24.6l11.3-5.5c0.3-0.1,0.7-0.2,1.1-0.2c1,0,2,0.4,2.9,1.1
		l1.9,1.8c0,0.2-0.1,0.4-0.1,0.6c0,1.6,1.2,3.2,2.8,3.7c0.6,0.2,1.3,0.2,1.8,0l12.2,11.5l-13.2-3.9c-0.3-1.3-1.4-2.5-2.7-2.9
		c-0.3-0.1-0.6-0.1-0.9-0.1c-1,0-1.8,0.5-2.1,1.3l-15.4-4.6c-0.5-0.1-0.7-0.4-0.8-1c0,0,0-0.1,0-0.1C17.5,25.5,17.9,24.9,18.6,24.6z
		 M21.7,35.8c-1.2-0.4-2.1-1.6-2.1-2.8c0-1.1,0.8-1.9,1.9-1.9c0.2,0,0.5,0,0.7,0.1c1.2,0.4,2.1,1.6,2.1,2.8c0,1.1-0.8,1.9-1.9,1.9
		C22.2,35.9,21.9,35.9,21.7,35.8z M26.3,47.7c-0.3,0-0.6,0-0.9-0.1c-1.5-0.5-2.7-2.1-2.7-3.6c0-1.4,1-2.4,2.3-2.4
		c0.3,0,0.6,0,0.9,0.1c1.5,0.5,2.7,2.1,2.7,3.6C28.6,46.7,27.7,47.7,26.3,47.7z M34.2,45.7c-0.4,0-0.8-0.1-1.2-0.2
		c-2.1-0.6-3.7-2.8-3.7-4.8c0-0.5,0.1-1,0.3-1.4c0,0,0-0.1,0-0.1c0-0.1,0.1-0.1,0.1-0.1c0-0.1,0.1-0.1,0.1-0.2
		c0.1-0.1,0.1-0.2,0.2-0.2c0.1-0.1,0.1-0.1,0.2-0.2c0.1,0,0.1-0.1,0.2-0.1c0.1-0.1,0.2-0.2,0.3-0.2c0,0,0,0,0,0
		c0.4-0.3,0.9-0.4,1.5-0.4c0.4,0,0.8,0.1,1.2,0.2c0.2,0.1,0.4,0.2,0.6,0.3c0.1,0,0.2,0.1,0.2,0.1c0.1,0.1,0.2,0.1,0.4,0.2
		c0.1,0.1,0.2,0.1,0.3,0.2c0.1,0.1,0.2,0.1,0.2,0.2c0.2,0.2,0.4,0.3,0.5,0.5c0.1,0.1,0.1,0.1,0.2,0.2c0.1,0.1,0.2,0.2,0.3,0.3
		c0.1,0.1,0.1,0.2,0.2,0.2c0.1,0.1,0.1,0.2,0.2,0.3c0.1,0.2,0.2,0.4,0.3,0.6c0,0,0,0,0,0c0.2,0.5,0.3,1.1,0.3,1.6
		C37.1,44.4,35.9,45.7,34.2,45.7z M40.8,39.4c0.2,0,0.4,0,0.6,0.1c1.1,0.3,2,1.5,2,2.6c0,1-0.7,1.8-1.8,1.8c-0.2,0-0.4,0-0.6-0.1
		c-1.1-0.3-2-1.5-2-2.6C39,40.1,39.7,39.4,40.8,39.4z M42.2,53c-0.2,0-0.4,0-0.6-0.1c-1.1-0.3-2-1.5-2-2.6c0-1,0.7-1.8,1.8-1.8
		c0.2,0,0.4,0,0.6,0.1c1.1,0.3,2,1.5,2,2.6C43.9,52.2,43.2,53,42.2,53z M47.7,49.2c-0.3,0-0.6,0-0.9-0.1c-1.5-0.5-2.7-2.1-2.7-3.6
		c0-1.4,1-2.4,2.3-2.4c0.3,0,0.6,0,0.9,0.1c1.5,0.5,2.7,2.1,2.7,3.6C50,48.2,49.1,49.2,47.7,49.2z"/>
</g>
</svg>
