<?xml version="1.0" encoding="utf-8"?>
<!-- Generator: Adobe Illustrator 20.0.0, SVG Export Plug-In . SVG Version: 6.00 Build 0)  -->
<!DOCTYPE svg PUBLIC "-//W3C//DTD SVG 1.1//EN" "http://www.w3.org/Graphics/SVG/1.1/DTD/svg11.dtd">
<svg version="1.1" id="Livello_1" xmlns="http://www.w3.org/2000/svg" xmlns:xlink="http://www.w3.org/1999/xlink" x="0px" y="0px"
	 viewBox="0 0 73.8 73.8" enable-background="new 0 0 73.8 73.8" xml:space="preserve">
<circle fill="#5B483C" cx="36.9" cy="36.9" r="36.9"/>
<g>
	<polygon fill="#FFFFFF" points="15.5,23.6 15.5,46.5 28.2,35 	"/>
	<polygon fill="#FFFFFF" points="50.3,21.7 17.6,21.7 33.9,36.4 	"/>
	<path fill="#FFFFFF" d="M42.3,37.4c1.5-0.7,3.2-1.1,5-1.1c1.8,0,3.5,0.4,5.1,1.1V23.6L39.7,35L42.3,37.4z"/>
	<path fill="#FFFFFF" d="M39.8,38.9l-2.2-2l-3.6,3.3l-3.6-3.3L17.6,48.3h17.6C35.2,44.5,37,41.1,39.8,38.9z"/>
	<path fill="#FFFFFF" d="M47.3,39.1c-5.1,0-9.3,4.2-9.3,9.3s4.2,9.3,9.3,9.3s9.3-4.2,9.3-9.3S52.4,39.1,47.3,39.1z M46.1,53.4
		L40.6,48l2-2l3.5,3.5l5.2-5.2l2,2L46.1,53.4z"/>
</g>
</svg>
