<?xml version="1.0" encoding="utf-8"?>
<!-- Generator: Adobe Illustrator 20.0.0, SVG Export Plug-In . SVG Version: 6.00 Build 0)  -->
<!DOCTYPE svg PUBLIC "-//W3C//DTD SVG 1.1//EN" "http://www.w3.org/Graphics/SVG/1.1/DTD/svg11.dtd">
<svg version="1.1" id="Livello_1" xmlns="http://www.w3.org/2000/svg" xmlns:xlink="http://www.w3.org/1999/xlink" x="0px" y="0px"
	 viewBox="0 0 73.8 73.8" enable-background="new 0 0 73.8 73.8" xml:space="preserve">
<circle fill="#ECD15D" cx="36.9" cy="36.9" r="36.9"/>
<g>
	<path fill="#FFFFFF" d="M20.5,55.3c0,0,0,1,0.9,1c1.2,0,10.8,0,10.8,0l0-8.9c0,0-0.2-1.5,1.3-1.5h4.5c1.7,0,1.6,1.5,1.6,1.5l0,8.8
		c0,0,9.1,0,10.6,0c1.2,0,1.1-1.2,1.1-1.2V38.7L36.3,25.5L20.5,38.7C20.5,38.7,20.5,55.3,20.5,55.3z"/>
	<path fill="#FFFFFF" d="M14.6,37.5c0,0,1.3,2.5,4.3,0l17.5-14.8l16.4,14.7c3.4,2.4,4.7,0,4.7,0L36.4,18.3L14.6,37.5z"/>
	<polygon fill="#FFFFFF" points="52.4,22.6 48.2,22.6 48.2,27.8 52.4,31.3 	"/>
</g>
</svg>
