<svg id="iconmonstr" xmlns="http://www.w3.org/2000/svg" width="24" height="24" viewBox="0 0 24 24"><style>.st0{fill-rule:evenodd;clip-rule:evenodd}</style><path id="google-plus-4" d="M12 .5C5.649.5.5 5.649.5 12S5.649 23.5 12 23.5 23.5 18.351 23.5 12 18.351.5 12 .5zM9.205 15.913c-2.164 0-3.913-1.749-3.913-3.913s1.749-3.913 3.913-3.913c1.057 0 1.94.386 2.621 1.022l-1.061 1.023c-.291-.28-.799-.604-1.56-.604-1.335 0-2.426 1.107-2.426 2.471s1.09 2.471 2.426 2.471c1.549 0 2.131-1.113 2.22-1.688h-2.22V11.44H12.9c.035.196.062.391.062.649-.001 2.237-1.499 3.824-3.757 3.824zm9.503-3.354h-1.677v1.677h-1.118v-1.677h-1.677v-1.117h1.677V9.764h1.118v1.677h1.677v1.118z"/></svg>