<svg id="iconmonstr" xmlns="http://www.w3.org/2000/svg" width="24" height="24" viewBox="0 0 24 24"><style>.st0{fill-rule:evenodd;clip-rule:evenodd}</style><path d="M16.792 15.763h-1.915v-2.765c0-1.818-1.918-1.664-1.918 0v2.765h-1.917V9.965h1.917v1.056c.836-1.562 3.833-1.678 3.833 1.496v3.246zM9.125 9.104a1.063 1.063 0 0 1-1.054-1.072c0-.592.472-1.072 1.054-1.072.582 0 1.054.48 1.054 1.072 0 .592-.472 1.072-1.054 1.072zm.958 6.659H8.167V9.965h1.917v5.798zM12 .299C5.649.299.5 5.492.5 11.898c0 6.405 5.149 11.598 11.5 11.598s11.5-5.193 11.5-11.598C23.5 5.492 18.351.299 12 .299z"/></svg>