<svg id="iconmonstr" xmlns="http://www.w3.org/2000/svg" width="24" height="24" viewBox="0 0 24 24"><style>.st0{fill-rule:evenodd;clip-rule:evenodd}</style><path id="instagram-9" d="M17.031 7.484V8.7a.517.517 0 0 1-.516.517H15.3a.516.516 0 0 1-.516-.517V7.484c0-.285.229-.516.516-.516h1.216a.517.517 0 0 1 .515.516zM12 14.579zm4.083-3.154c.027.188.044.379.044.574a4.127 4.127 0 1 1-8.255 0c0-.195.017-.386.044-.574a4.23 4.23 0 0 1 .113-.544h-1.06v5.634c0 .285.231.516.516.516h9.031a.516.516 0 0 0 .516-.516v-5.634H15.97c.049.178.087.359.113.544zM23.5 12c0 6.351-5.149 11.5-11.5 11.5S.5 18.351.5 12 5.649.5 12 .5 23.5 5.649 23.5 12zm-4.792-5.16c0-.855-.693-1.548-1.548-1.548H6.84c-.855 0-1.548.693-1.548 1.548v10.32c0 .856.693 1.549 1.548 1.549h10.32c.855 0 1.548-.693 1.548-1.549V6.84z"/></svg>