<svg id="iconmonstr" xmlns="http://www.w3.org/2000/svg" width="24" height="24" viewBox="0 0 24 24"><style>.st0{fill-rule:evenodd;clip-rule:evenodd}</style><path d="M17.814 9.621c.175 3.905-2.712 8.259-7.824 8.259-1.554 0-3-.46-4.219-1.248a5.498 5.498 0 0 0 4.075-1.15 2.76 2.76 0 0 1-2.572-1.928c.432.083.857.059 1.244-.048A2.772 2.772 0 0 1 6.31 10.75c.372.208.795.333 1.247.347a2.794 2.794 0 0 1-.852-3.706 7.787 7.787 0 0 0 5.673 2.9c-.401-1.736.905-3.409 2.682-3.409.791 0 1.507.337 2.008.877a5.466 5.466 0 0 0 1.748-.673 2.786 2.786 0 0 1-1.21 1.536 5.459 5.459 0 0 0 1.581-.437 5.582 5.582 0 0 1-1.373 1.436zM12 .299C5.649.299.5 5.492.5 11.897c0 6.405 5.149 11.598 11.5 11.598s11.5-5.193 11.5-11.598C23.5 5.492 18.351.299 12 .299z"/></svg>