<svg xmlns="http://www.w3.org/2000/svg" width="739.333" height="243.333" viewBox="0 0 739.333 243.333"><path fill="#F6922F" d="M180.225 239.86c-4.492-1.324-8.82-2.61-13.155-3.868-1.152-.334-1.769-.827-1.667-2.239.664-9.188 1.217-18.383 1.833-27.574.404-6.03.76-12.066 1.311-18.083.445-4.865 1.108-9.711 1.747-14.556.758-5.755 1.588-11.502 2.398-17.25.344-2.442.48-4.945 1.119-7.309 2.249-8.333 2.702-16.94 4.123-25.396 2.151-12.796 3.47-25.652 3.359-38.637-.01-1.201-.223-2.398-.307-3.6-.124-1.775-1.22-2.876-2.716-3.458-1.59-.618-3.028.124-3.937 1.399-2.712 3.802-5.589 7.532-7.861 11.593-3.078 5.502-4.405 11.64-5.439 17.847-1.122 6.736-2.61 13.41-3.779 20.139-2.256 12.975-4.546 25.945-4.437 39.201.04 4.837 1.447 8.935 4.92 12.386 2.861 2.843 3.015 6.438 2.161 10.133a1280.532 1280.532 0 0 1-3.992 16.744c-1.256 5.12-2.584 10.222-3.873 15.334-.768 3.046-1.52 6.096-2.226 8.934l-17.153-2.442c-.301-4.038-.579-8.095-.911-12.148-.84-10.266-1.744-20.527-2.544-30.797-.491-6.312-.939-12.63-1.224-18.953-.399-8.817 2.124-16.685 7.821-23.55 2.391-2.881 3.77-6.354 3.653-10.164-.148-4.829-.535-9.651-.835-14.475-.182-2.931-.383-5.86-.596-8.789-.682-9.358-1.374-18.715-2.066-28.073-.034-.459.011-.975-.187-1.357-.257-.496-.722-.884-1.098-1.318-.34.496-.951.977-.978 1.489-.218 4.141-.331 8.288-.466 12.434-.275 8.404-.542 16.809-.82 25.213-.018.535-.099 1.068-.15 1.603l-.436.033c-.206-.978-.535-1.948-.598-2.935-.572-8.964-1.075-17.932-1.651-26.896-.199-3.1-.508-6.194-.864-9.28-.062-.54-.608-1.024-.931-1.534-.306.504-.838.989-.882 1.514-.355 4.303-.675 8.611-.897 12.923-.42 8.166-.762 16.336-1.162 24.504-.027.552-.274 1.094-.797 1.621-1.464-13.499-1.68-27.047-2.71-40.531l-.69-.214c-.344.596-.913 1.164-.995 1.794-.371 2.85-.678 5.712-.872 8.58-.457 6.772-.797 13.553-1.263 20.324-.232 3.369-.637 6.726-.964 10.089l-.485.071c-.118-.409-.329-.815-.339-1.226-.154-6.735-.228-13.472-.432-20.205-.185-6.098-.488-12.193-.805-18.286-.02-.389-.612-.749-.938-1.122-.353.38-.953.721-1.017 1.145-.286 1.874-.465 3.769-.6 5.662-.569 7.982-1.092 15.966-1.666 23.948-.429 5.97-.782 11.949-1.405 17.899-.702 6.699 1.059 12.61 5.132 17.871 4.18 5.401 6.433 11.341 6.072 18.303-.622 12.019-.8 24.063-1.562 36.072-.582 9.172-1.779 18.305-2.709 27.454-.028.278-.135.549-.197.794l-16.003 1.471c-.523-2.062-1.085-4.147-1.578-6.249-1.376-5.865-2.769-11.726-4.068-17.607-1.25-5.657-2.485-11.32-3.556-17.013-1.528-8.125-2.756-16.308-4.382-24.412-1.466-7.306.505-13.489 4.983-19.245 2.613-3.36 4.88-7.01 7.082-10.662 1.926-3.196 2.665-6.829 2.883-10.529.996-16.891-5.06-30.642-18.596-40.879-7.66-5.793-15.401-4.49-21.703 2.866-5.878 6.862-8.73 15.004-9.574 23.996-.458 4.876-.354 9.674.573 14.427 1.521 7.797 5.374 14.287 11.509 19.394 3.429 2.854 6.989 5.58 10.184 8.679 3.183 3.088 4.573 7.105 4.918 11.571.385 4.985 1.146 9.939 1.627 14.918.326 3.378.487 6.774.655 10.165.399 8.053.763 16.107 1.133 24.161.288 6.27.565 12.541.843 18.811.017.394.002.79.002 1.069l-19.021 6.247c-.615-2.88-1.234-5.772-1.848-8.665-.965-4.545-1.945-9.088-2.886-13.638-.918-4.439-1.779-8.89-2.693-13.331-1.747-8.487-3.514-16.97-5.272-25.454-.582-2.808-1.167-5.615-1.738-8.425-.195-.957-.523-1.541-1.684-1.804-14.231-3.226-25.699-10.723-34.157-22.63-4.592-6.465-7.564-13.662-9.063-21.488-1.16-6.065-1.388-12.167-.494-18.217 1.972-13.344 7.885-24.708 17.973-33.776C28.642 66.1 36.696 61.81 45.911 59.667c4.674-1.087 9.365-1.786 14.155-1.556 1.342.065 1.851-.482 2.105-1.642 2.066-9.421 6.081-17.941 11.843-25.663 5.688-7.623 12.685-13.753 20.911-18.503a66.05 66.05 0 0 1 22.305-7.995c6.703-1.115 13.493-1.315 20.293-.385 17.771 2.429 32.424 10.532 43.976 24.173 5.364 6.334 9.264 13.547 12.009 21.415 2.317 6.64 3.251 13.493 3.769 20.441.064.852.175 1.378 1.192 1.745 7.484 2.698 14.28 6.587 20.076 12.097 5.878 5.588 10.3 12.103 13.447 19.648 3.925 9.41 5.024 19.105 3.692 29.04-1.333 9.937-5.27 18.932-11.536 26.805-5.791 7.275-12.966 12.891-21.543 16.455-3.977 1.653-8.284 2.531-12.475 3.636-1.232.325-1.958.593-2.141 2.107-.829 6.847-1.864 13.668-2.765 20.506-.826 6.27-1.54 12.554-2.366 18.824-.833 6.32-1.743 12.63-2.633 19.045z"/><path d="M271.806 144.983h5.486l17.435 48.021h.15l17.284-48.021h5.411l-19.915 53.656h-5.937l-19.914-53.656zm45.016 26.754c.451-9.093 6.838-13.001 15.706-13.001 6.839 0 14.279 2.104 14.279 12.475v20.591c0 1.803.901 2.855 2.78 2.855.526 0 1.127-.15 1.503-.301v3.982c-1.052.226-1.804.301-3.081.301-4.81 0-5.561-2.705-5.561-6.763h-.15c-3.307 5.035-6.688 7.891-14.128 7.891-7.139 0-13.001-3.532-13.001-11.348 0-10.897 10.596-11.272 20.816-12.475 3.908-.451 6.087-.977 6.087-5.26 0-6.388-4.584-7.966-10.145-7.966-5.862 0-10.22 2.705-10.371 9.018h-4.734zm25.25 5.711h-.15c-.602 1.127-2.706 1.503-3.983 1.729-8.041 1.428-18.036 1.353-18.036 8.943 0 4.734 4.208 7.666 8.642 7.666 7.214 0 13.602-4.584 13.527-12.174v-6.164zm14.281-32.465h4.734v53.656h-4.734v-53.656zm21.344 14.88h7.891v3.983h-7.891v26.152c0 3.081.45 4.885 3.832 5.11 1.353 0 2.705-.075 4.059-.225v4.058c-1.429 0-2.781.15-4.209.15-6.313 0-8.492-2.104-8.417-8.717v-26.528h-6.764v-3.983h6.764v-11.648h4.735v11.648zm17.51 20.666c.075 6.914 3.683 15.255 12.775 15.255 6.914 0 10.672-4.058 12.175-9.92h4.734c-2.029 8.792-7.14 13.903-16.909 13.903-12.324 0-17.51-9.469-17.51-20.516 0-10.22 5.186-20.516 17.51-20.516 12.476 0 17.436 10.896 17.06 21.793h-29.835zm25.101-3.983c-.226-7.14-4.659-13.828-12.325-13.828-7.74 0-12.023 6.763-12.775 13.828h25.1zm11.198-31.563h4.734v53.656h-4.734v-53.656zm13.903 0h4.734v53.656h-4.734v-53.656zm13.904 0h4.734v7.59h-4.734v-7.59zm0 14.88h4.734v38.777h-4.734v-38.777zm13.752 0h4.734v6.688h.15c1.729-4.659 6.914-7.815 12.399-7.815 10.897 0 14.204 5.711 14.204 14.955v24.949h-4.734v-24.198c0-6.688-2.18-11.723-9.845-11.723-7.516 0-12.024 5.711-12.175 13.301v22.62h-4.734v-38.777zm39.981 11.874c.451-9.093 6.839-13.001 15.707-13.001 6.838 0 14.278 2.104 14.278 12.475v20.591c0 1.803.901 2.855 2.78 2.855.526 0 1.127-.15 1.503-.301v3.982c-1.052.226-1.804.301-3.081.301-4.81 0-5.562-2.705-5.562-6.763h-.149c-3.307 5.035-6.688 7.891-14.129 7.891-7.139 0-13.001-3.532-13.001-11.348 0-10.897 10.597-11.272 20.817-12.475 3.907-.451 6.087-.977 6.087-5.26 0-6.388-4.584-7.966-10.146-7.966-5.861 0-10.221 2.705-10.37 9.018h-4.734zm25.251 5.711h-.15c-.602 1.127-2.705 1.503-3.983 1.729-8.041 1.428-18.035 1.353-18.035 8.943 0 4.734 4.208 7.666 8.642 7.666 7.215 0 13.603-4.584 13.527-12.174v-6.164zm30.213-32.465h42.535v4.359h-18.713v49.297h-5.109v-49.297H568.51v-4.359zm37.878 26.754c.451-9.093 6.839-13.001 15.707-13.001 6.838 0 14.278 2.104 14.278 12.475v20.591c0 1.803.901 2.855 2.78 2.855.526 0 1.127-.15 1.503-.301v3.982c-1.052.226-1.804.301-3.081.301-4.81 0-5.562-2.705-5.562-6.763h-.149c-3.307 5.035-6.688 7.891-14.129 7.891-7.139 0-13.001-3.532-13.001-11.348 0-10.897 10.597-11.272 20.817-12.475 3.907-.451 6.087-.977 6.087-5.26 0-6.388-4.584-7.966-10.146-7.966-5.861 0-10.221 2.705-10.37 9.018h-4.734zm25.251 5.711h-.15c-.602 1.127-2.705 1.503-3.983 1.729-8.041 1.428-18.035 1.353-18.035 8.943 0 4.734 4.208 7.666 8.642 7.666 7.215 0 13.603-4.584 13.527-12.174v-6.164zm37.426-6.238c-.226-5.861-4.734-8.492-10.146-8.492-4.208 0-9.168 1.653-9.168 6.688 0 4.208 4.81 5.711 8.041 6.538l6.313 1.428c5.41.827 11.047 3.983 11.047 10.746 0 8.417-8.342 11.648-15.556 11.648-9.019 0-15.181-4.208-15.932-13.677h4.734c.375 6.388 5.109 9.694 11.422 9.694 4.435 0 10.597-1.954 10.597-7.365 0-4.509-4.209-6.012-8.492-7.064l-6.087-1.353c-6.162-1.653-10.821-3.757-10.821-10.371 0-7.891 7.74-10.896 14.579-10.896 7.74 0 13.902 4.058 14.203 12.475h-4.734zm20.441-11.347h7.892v3.983h-7.892v26.152c0 3.081.451 4.885 3.833 5.11 1.353 0 2.705-.075 4.059-.225v4.058c-1.429 0-2.781.15-4.209.15-6.313 0-8.491-2.104-8.417-8.717v-26.528h-6.763v-3.983h6.763v-11.648h4.734v11.648zm17.511 20.666c.075 6.914 3.683 15.255 12.775 15.255 6.914 0 10.672-4.058 12.175-9.92h4.734c-2.029 8.792-7.14 13.903-16.909 13.903-12.324 0-17.51-9.469-17.51-20.516 0-10.22 5.186-20.516 17.51-20.516 12.476 0 17.436 10.896 17.06 21.793h-29.835zm25.1-3.983c-.226-7.14-4.659-13.828-12.325-13.828-7.74 0-12.023 6.763-12.775 13.828h25.1zM289.508 78.909h-12.775v-9.77h12.775v9.77zm-12.775 4.884h12.775v39.002h-12.775V83.793zm21.794 0h12.174v4.509h.15c2.48-3.682 6.238-5.636 10.747-5.636 12.25 0 17.435 10.521 17.435 21.493 0 10.146-5.411 19.765-16.458 19.765-4.81 0-8.492-1.804-11.122-5.336h-.15v17.285h-12.775v-52.08zm12.324 19.088c0 6.838 1.954 11.272 7.741 11.272 5.711 0 7.665-5.937 7.665-11.272 0-4.96-1.954-10.446-7.59-10.446-3.457.001-7.816 2.405-7.816 10.446zm45.919 3.532c.226 5.336 3.307 8.868 8.717 8.868 3.081 0 6.087-1.428 7.29-4.283h11.949c-2.33 9.018-10.672 12.926-19.389 12.926-12.7 0-21.342-7.666-21.342-20.742 0-11.949 9.544-20.516 21.042-20.516 13.978 0 20.967 10.521 20.365 23.747H356.77zm15.856-7.139c-.225-4.358-3.307-7.966-7.59-7.966-4.509 0-7.515 3.231-8.267 7.966h15.857zm19.616-15.481h12.399v6.838h.15c1.879-4.96 6.237-7.59 11.724-7.59.977 0 2.029.075 3.006.3v11.648c-1.653-.451-3.156-.751-4.885-.751-6.313 0-9.619 4.358-9.619 9.243v19.313h-12.775V83.793zm31.039 12.024c.226-5.11 2.63-8.417 6.087-10.446 3.457-1.954 7.966-2.706 12.399-2.706 9.243 0 18.187 2.029 18.187 13.076V112.8c0 3.307 0 6.914 1.503 9.995h-12.851c-.451-1.202-.602-2.405-.752-3.682-3.307 3.457-8.191 4.81-12.851 4.81-7.439 0-13.301-3.758-13.301-11.799 0-12.7 13.827-11.723 22.694-13.527 2.18-.451 3.382-1.202 3.382-3.607 0-2.931-3.531-4.058-6.162-4.058-3.532 0-5.786 1.578-6.388 4.885h-11.947zm16.532 20.215c6.088 0 8.116-3.457 7.815-11.498-1.803 1.127-5.109 1.353-7.891 2.104-2.855.676-5.26 1.879-5.26 4.96.002 3.157 2.481 4.434 5.336 4.434zm29.009-46.893h12.775v53.657h-12.775V69.139z" fill="#584238"/></svg>