<?xml version="1.0" encoding="utf-8"?>
<!-- Generator: Adobe Illustrator 20.0.0, SVG Export Plug-In . SVG Version: 6.00 Build 0)  -->
<!DOCTYPE svg PUBLIC "-//W3C//DTD SVG 1.1//EN" "http://www.w3.org/Graphics/SVG/1.1/DTD/svg11.dtd">
<svg version="1.1" id="Livello_1" xmlns="http://www.w3.org/2000/svg" xmlns:xlink="http://www.w3.org/1999/xlink" x="0px" y="0px"
	 viewBox="0 0 73.8 73.8" style="enable-background:new 0 0 73.8 73.8;" xml:space="preserve">
<style type="text/css">
	.st0{fill:#000000;}
	.st1{fill:#FFFFFF;}
</style>
<circle class="st0" cx="36.9" cy="36.9" r="36.9"/>
<g>
	<path class="st1" d="M42.9,46.9c5.1-3,7.3-8.8,6.3-14.5L46.5,17H25.3l-2.7,15.4c-0.9,5.7,1.3,11.5,6.3,14.5c1.8,1.1,3.8,1.7,6,1.9
		V59l-9.6,1.1v1.1h21.3v-1.1L36.9,59V48.8C39.1,48.7,41.2,48,42.9,46.9z M35.9,46.8c-2.1,0-4.2-0.6-5.9-1.6c-1-0.6-2-1.4-2.7-2.3
		c-0.7-0.9-1.4-1.9-1.8-3c-0.9-2.2-1.2-4.6-0.8-7.1L27,19.2h17.7l2.4,13.6c0.4,2.5,0.1,4.9-0.8,7.1c-0.5,1.1-1.1,2.1-1.8,3
		c-0.8,0.9-1.7,1.7-2.7,2.3C40.1,46.2,38,46.8,35.9,46.8z"/>
	<path class="st1" d="M42.9,30.5c-0.5-0.1-1.1-0.2-1.8-0.2c-0.6,0-1.2,0.1-1.8,0.2c-0.5,0.1-1,0.3-1.5,0.6c-0.8,0.5-1.5,1.3-2,1.9
		c-0.5,0.6-1.2,1.4-2,1.9c-0.4,0.2-0.9,0.4-1.5,0.6c-0.5,0.1-1.1,0.2-1.8,0.2s-1.2-0.1-1.8-0.2c-0.5-0.1-1-0.3-1.5-0.6
		c-0.3-0.2-0.6-0.4-0.9-0.7c-0.1,1.7,0.1,3.4,0.8,4.9c0.4,0.9,0.9,1.7,1.5,2.4c0.6,0.7,1.4,1.4,2.2,1.9c1.5,0.9,3.1,1.3,4.9,1.3
		c1.7,0,3.4-0.5,4.9-1.3c0.8-0.5,1.6-1.1,2.2-1.9c0.6-0.7,1.1-1.5,1.5-2.4c0.8-1.8,1-3.8,0.7-5.9l-0.3-1.7c-0.1-0.1-0.3-0.2-0.4-0.3
		C44,30.8,43.5,30.6,42.9,30.5z"/>
</g>
</svg>
