<?xml version="1.0" encoding="utf-8"?>
<!-- Generator: Adobe Illustrator 20.0.0, SVG Export Plug-In . SVG Version: 6.00 Build 0)  -->
<!DOCTYPE svg PUBLIC "-//W3C//DTD SVG 1.1//EN" "http://www.w3.org/Graphics/SVG/1.1/DTD/svg11.dtd">
<svg version="1.1" id="Livello_1" xmlns="http://www.w3.org/2000/svg" xmlns:xlink="http://www.w3.org/1999/xlink" x="0px" y="0px"
	 viewBox="0 0 73.8 73.8" style="enable-background:new 0 0 73.8 73.8;" xml:space="preserve">
<style type="text/css">
	.st0{fill:#0A0A0D;}
</style>
<path class="st0" d="M32.7,48.7c0,0.9-0.7,1.5-1.5,1.5s-1.5-0.7-1.5-1.5V33.2c0-0.9,0.7-1.5,1.5-1.5s1.5,0.7,1.5,1.5V48.7z
	 M38.9,48.7c0,0.9-0.7,1.5-1.5,1.5s-1.5-0.7-1.5-1.5V33.2c0-0.9,0.7-1.5,1.5-1.5s1.5,0.7,1.5,1.5V48.7z M45.1,48.7
	c0,0.9-0.7,1.5-1.5,1.5S42,49.6,42,48.7V33.2c0-0.9,0.7-1.5,1.5-1.5s1.5,0.7,1.5,1.5V48.7z M52.8,22.4v3.1H21.9v-3.1h8.8
	c1.4,0,2.5-1.7,2.5-3.1h8.2c0,1.4,1.1,3.1,2.5,3.1H52.8z M48.2,28.6v24.8H26.5V28.6h-3.1v27.8h27.8V28.6H48.2z"/>
</svg>
