<?xml version="1.0" encoding="utf-8"?>
<!-- Generator: Adobe Illustrator 20.0.0, SVG Export Plug-In . SVG Version: 6.00 Build 0)  -->
<!DOCTYPE svg PUBLIC "-//W3C//DTD SVG 1.1//EN" "http://www.w3.org/Graphics/SVG/1.1/DTD/svg11.dtd">
<svg version="1.1" id="Livello_1" xmlns="http://www.w3.org/2000/svg" xmlns:xlink="http://www.w3.org/1999/xlink" x="0px" y="0px"
	 viewBox="0 0 73.8 73.8" style="enable-background:new 0 0 73.8 73.8;" xml:space="preserve">
<style type="text/css">
	.st0{fill:#0A0A0D;}
</style>
<path class="st0" d="M34.1,48.1h-6.3v-3.2h6.3V48.1z M38.8,41.7l4.9,4.9l-6.5,1.5L38.8,41.7z M57.8,32.4L45.3,45.1L40.3,40
	l12.5-12.6C52.8,27.4,57.8,32.4,57.8,32.4z M48.4,46.5v6.3H23V21.2h11.6c6.6,0,4.2,9.5,4.2,9.5s3.7-1,6.4-0.2l3.1-3.1
	C44.9,22.9,39.3,18,36,18H19.9v38h31.6V43.3L48.4,46.5z"/>
</svg>
