<?xml version="1.0" encoding="utf-8"?>
<!-- Generator: Adobe Illustrator 20.0.0, SVG Export Plug-In . SVG Version: 6.00 Build 0)  -->
<!DOCTYPE svg PUBLIC "-//W3C//DTD SVG 1.1//EN" "http://www.w3.org/Graphics/SVG/1.1/DTD/svg11.dtd">
<svg version="1.1" id="Livello_1" xmlns="http://www.w3.org/2000/svg" xmlns:xlink="http://www.w3.org/1999/xlink" x="0px" y="0px"
	 viewBox="0 0 73.8 73.8" style="enable-background:new 0 0 73.8 73.8;" xml:space="preserve">
<style type="text/css">
	.st0{fill:#000000;}
	.st1{fill:#FFFFFF;}
</style>
<circle class="st0" cx="36.9" cy="36.9" r="36.9"/>
<g>
	<path class="st1" d="M26.8,21.6h17.8c1,0,1.9-0.9,1.9-1.9v-0.8c0-1-0.9-1.9-1.9-1.9H26.8c-1,0-1.9,0.9-1.9,1.9v0.8
		C24.9,20.7,25.7,21.6,26.8,21.6z"/>
	<path class="st1" d="M47.4,26.6c-0.1-1-0.6-1.9-1.4-2.4V23H25.3v1.2c-0.8,0.5-1.3,1.4-1.4,2.4c-2,1.3-3.4,3.6-3.4,6.3v18.8
		c0,4.1,3.4,7.5,7.5,7.5h15.4c4.1,0,7.5-3.4,7.5-7.5V32.9C50.8,30.3,49.5,28,47.4,26.6z M42,49.8c0,0.9-0.8,1.6-1.9,1.6h-19V32.8
		c0-0.2,0-0.3,0-0.5h19c1,0,1.9,0.7,1.9,1.6V49.8z"/>
</g>
</svg>
