<?xml version="1.0" encoding="utf-8"?>
<!-- Generator: Adobe Illustrator 20.0.0, SVG Export Plug-In . SVG Version: 6.00 Build 0)  -->
<!DOCTYPE svg PUBLIC "-//W3C//DTD SVG 1.1//EN" "http://www.w3.org/Graphics/SVG/1.1/DTD/svg11.dtd">
<svg version="1.1" id="Livello_1" xmlns="http://www.w3.org/2000/svg" xmlns:xlink="http://www.w3.org/1999/xlink" x="0px" y="0px"
	 viewBox="0 0 73.8 73.8" style="enable-background:new 0 0 73.8 73.8;" xml:space="preserve">
<style type="text/css">
	.st0{fill:#000000;}
	.st1{fill:#FFFFFF;}
</style>
<circle class="st0" cx="36.9" cy="36.9" r="36.9"/>
<g>
	<path class="st1" d="M17.8,30h38.8c0.6,0,1-0.3,1.3-0.8c0.3-0.5,0.3-1.1,0-1.6l-0.1-0.2c-1-1.1-3.6-3.7-5.2-3.7h-9.3
		c-0.4-2.5-2.6-4.4-5.2-4.4h-2.6c-2.6,0-4.8,1.9-5.2,4.4h-8.4c-1.6,0-4.2,2.6-5.2,3.7l-0.1,0.2c-0.3,0.5-0.3,1.1,0,1.6
		C16.8,29.7,17.3,30,17.8,30z M35.5,21.2h2.6c1.6,0,3,1.1,3.4,2.6h-9.5C32.5,22.4,33.8,21.2,35.5,21.2z M21.8,25.6h8.4h13.2h9.2
		c0.5,0,2,1.2,3.5,2.6H18.4C19.8,26.8,21.4,25.6,21.8,25.6z"/>
	<path class="st1" d="M59.4,39.1h-2.6c0-0.5,0.2-1,0.5-1.4l1.4-2.4c0.3-0.5,0.3-1.1,0-1.5c-0.3-0.5-0.8-0.8-1.3-0.8H16.6
		c-0.5,0-1.1,0.3-1.3,0.8c-0.3,0.5-0.3,1.1,0,1.5l1.4,2.4c0.3,0.4,0.4,0.9,0.5,1.4h-2.6c-1.5,0-2.6,1.2-2.6,2.6s1.2,2.6,2.6,2.6h2.6
		v1.8h7c0.5,0,0.9,0.4,0.9,0.9s-0.4,0.9-0.9,0.9h-7v1.8h9.7c0.5,0,0.9,0.4,0.9,0.9s-0.4,0.9-0.9,0.9h-9.6c0.5,2.5,2.7,4.4,5.3,4.4
		h28.7c3,0,5.4-2.4,5.4-5.5v-6h2.6c1.5,0,2.6-1.2,2.6-2.6S60.9,39.1,59.4,39.1z M14.5,42.6c-0.5,0-0.9-0.4-0.9-0.9s0.4-0.9,0.9-0.9
		h2.6v1.8H14.5z M22.5,44.3h-3.5v-1.8h3.5c0.5,0,0.9,0.4,0.9,0.9C23.3,44,22.9,44.3,22.5,44.3z M59.4,42.6h-2.6v-1.8h2.6
		c0.5,0,0.9,0.4,0.9,0.9S59.9,42.6,59.4,42.6z"/>
</g>
</svg>
