<?xml version="1.0" encoding="utf-8"?>
<!-- Generator: Adobe Illustrator 20.0.0, SVG Export Plug-In . SVG Version: 6.00 Build 0)  -->
<!DOCTYPE svg PUBLIC "-//W3C//DTD SVG 1.1//EN" "http://www.w3.org/Graphics/SVG/1.1/DTD/svg11.dtd">
<svg version="1.1" id="Livello_1" xmlns="http://www.w3.org/2000/svg" xmlns:xlink="http://www.w3.org/1999/xlink" x="0px" y="0px"
	 viewBox="0 0 73.8 73.8" style="enable-background:new 0 0 73.8 73.8;" xml:space="preserve">
<style type="text/css">
	.st0{fill:#000000;}
	.st1{fill:#FFFFFF;}
</style>
<circle class="st0" cx="36.9" cy="36.9" r="36.9"/>
<g>
	<path class="st1" d="M33,28.5c2.3,0.8,4.5,2.1,6.4,3.8c0.8-0.2,2.9-0.6,4-1.8c1.1-1.1,1.6-3,1.8-3.9c-5.8-5-13.5-5.8-17.7-1.6
		c-0.7,0.7-1.3,1.6-1.7,2.5C28,27.3,30.5,27.6,33,28.5z"/>
</g>
<g>
	<path class="st1" d="M44.8,32c-1.1,1.1-2.6,1.7-3.7,2c1.9,2.1,3.4,4.5,4.3,7c0.9,2.5,1.2,4.9,0.9,7.2c0.9-0.4,1.8-1,2.5-1.7
		c4.3-4.3,3.4-12.3-2-18.2C46.5,29.5,45.9,30.9,44.8,32z"/>
</g>
<g>
	<path class="st1" d="M51.2,25.5c-0.9,0.9-1.9,1.3-2.8,1.5c3.2,3.6,5,7.8,5.1,11.8c3.2-3.8,2.7-10.1-1.2-14.9
		C52.1,24.5,51.7,25.1,51.2,25.5z"/>
</g>
<g>
	<path class="st1" d="M49.8,24.1c0.5-0.5,0.8-1.2,1-1.7c-4.9-4.6-11.6-5.4-15.7-2c3.9,0.1,8,1.8,11.5,4.9
		C47.2,25.3,48.7,25.2,49.8,24.1z"/>
</g>
<g>
	<path class="st1" d="M38.7,38.1c-0.4,0.4-1,0.4-1.4,0c-0.4-0.4-0.4-1,0-1.4c1-1,1-2.2,1-2.8c-5-4.3-12.7-6-15.8-3.8
		c-2.2,1.5-3.5,3.2-4.6,4.6c-4.6,5.6-3.8,13.4,2.1,19.3c5.9,5.9,14.8,6.6,19.3,2.1c0,0,0,0,0,0c0,0,3.9-3.7,4.8-5
		c2.3-3.6,0.4-10.5-3.9-15.4C39.8,36.5,39.4,37.4,38.7,38.1z M37.4,44.9c0.7,2,0.9,4,0.4,5.7c-0.3,1.1-0.8,2-1.6,2.7c0,0,0,0,0,0
		c-3.1,3.1-9.2,2.2-13.6-2.1c-4.3-4.3-5.3-10.4-2.1-13.5c0.7-0.7,1.7-1.3,2.7-1.6c1.7-0.5,3.7-0.3,5.7,0.4c1.9,0.7,3.6,1.8,5.1,3.3
		C35.6,41.3,36.8,43.1,37.4,44.9z"/>
</g>
<g>
	<path class="st1" d="M51.2,19.8c-0.1,0.1-0.1,0.1-0.1,0.2c0.5,0.4,1.1,0.9,1.6,1.4c0.5,0.5,0.9,0.9,1.3,1.4c0.1,0,0.1-0.1,0.2-0.1
		c0.8-0.8,0.8-2.1,0-2.9C53.2,19,52,19,51.2,19.8z"/>
</g>
<g>
	<g>
		<ellipse transform="matrix(0.7067 -0.7075 0.7075 0.7067 -26.2453 30.8061)" class="st1" cx="24" cy="47.1" rx="0.8" ry="1"/>
	</g>
	<g>
		<ellipse transform="matrix(0.7072 -0.707 0.707 0.7072 -23.5654 29.3717)" class="st1" cx="23.7" cy="43.1" rx="1.7" ry="2"/>
	</g>
	<g>
		<path class="st1" d="M30.6,47.7c0.8,0.8,0.9,2,0.2,2.6c-0.7,0.7-1.8,0.5-2.6-0.2c-0.8-0.8-0.9-2-0.2-2.6
			C28.6,46.8,29.8,46.9,30.6,47.7z"/>
	</g>
	<g>
		<path class="st1" d="M33.9,48.6c0.4,0.4,0.4,1,0.1,1.3c-0.3,0.3-0.9,0.3-1.3-0.1c-0.4-0.4-0.4-1-0.1-1.3
			C32.9,48.2,33.5,48.2,33.9,48.6z"/>
	</g>
	<g>
		<path class="st1" d="M31.3,41.2c0.8,0.8,0.9,2,0.2,2.6c-0.7,0.7-1.8,0.6-2.6-0.2c-0.8-0.8-0.9-2-0.2-2.6
			C29.3,40.3,30.5,40.4,31.3,41.2z"/>
	</g>
	<g>
		<path class="st1" d="M26.5,38.9c0.4,0.4,0.4,1,0.1,1.3c-0.3,0.3-0.9,0.3-1.3-0.1c-0.4-0.4-0.5-1-0.1-1.3
			C25.6,38.4,26.1,38.5,26.5,38.9z"/>
	</g>
</g>
</svg>
