<?xml version="1.0" encoding="utf-8"?>
<!-- Generator: Adobe Illustrator 20.0.0, SVG Export Plug-In . SVG Version: 6.00 Build 0)  -->
<!DOCTYPE svg PUBLIC "-//W3C//DTD SVG 1.1//EN" "http://www.w3.org/Graphics/SVG/1.1/DTD/svg11.dtd">
<svg version="1.1" id="Livello_1" xmlns="http://www.w3.org/2000/svg" xmlns:xlink="http://www.w3.org/1999/xlink" x="0px" y="0px"
	 viewBox="0 0 73.8 73.8" style="enable-background:new 0 0 73.8 73.8;" xml:space="preserve">
<style type="text/css">
	.st0{clip-path:url(#SVGID_2_);fill:#FFFFFF;}
	.st1{clip-path:url(#SVGID_2_);fill:#BD0035;}
	.st2{clip-path:url(#SVGID_2_);fill:#2F2C7E;}
</style>
<g id="UNITED_KINGDOM_2_">
	<g>
		<g>
			<defs>
				<rect id="SVGID_1_" x="9.3" y="21.5" width="56.1" height="32.8"/>
			</defs>
			<clipPath id="SVGID_2_">
				<use xlink:href="#SVGID_1_"  style="overflow:visible;"/>
			</clipPath>
			<rect x="9.3" y="21.5" class="st0" width="56.1" height="32.8"/>
			<polygon class="st1" points="46.9,33.4 65.4,23 65.4,21.5 64.1,21.5 43,33.4 			"/>
			<polygon class="st1" points="46,43.1 65.4,54 65.4,51.8 49.9,43.1 			"/>
			<polygon class="st1" points="9.3,24 25.9,33.4 29.8,33.4 9.3,21.8 			"/>
			<polygon class="st1" points="28.9,43.1 9.3,54.1 9.3,54.3 12.8,54.3 32.8,43.1 			"/>
			<polygon class="st2" points="61.6,21.5 41.9,21.5 41.9,32.5 			"/>
			<polygon class="st2" points="33.2,21.5 13.7,21.5 33.2,32.5 			"/>
			<polygon class="st2" points="65.4,33.4 65.4,25.8 52.1,33.4 			"/>
			<polygon class="st2" points="65.4,50.5 65.4,43.1 52.1,43.1 			"/>
			<polygon class="st2" points="14.8,54.3 33.2,54.3 33.2,43.9 			"/>
			<polygon class="st2" points="41.9,54.3 60.5,54.3 41.9,43.9 			"/>
			<polygon class="st2" points="9.3,43.1 9.3,50.9 23.1,43.1 			"/>
			<polygon class="st2" points="9.3,33.4 23.1,33.4 9.3,25.6 			"/>
			<polygon class="st1" points="35,21.5 35,35.3 9.3,35.3 9.3,41.1 35,41.1 35,54.3 40.2,54.3 40.2,41.1 65.4,41.1 65.4,35.3 
				40.2,35.3 40.2,21.5 			"/>
		</g>
	</g>
</g>
</svg>
