<?xml version="1.0" encoding="utf-8"?>
<!-- Generator: Adobe Illustrator 20.0.0, SVG Export Plug-In . SVG Version: 6.00 Build 0)  -->
<!DOCTYPE svg PUBLIC "-//W3C//DTD SVG 1.1//EN" "http://www.w3.org/Graphics/SVG/1.1/DTD/svg11.dtd">
<svg version="1.1" id="Livello_1" xmlns="http://www.w3.org/2000/svg" xmlns:xlink="http://www.w3.org/1999/xlink" x="0px" y="0px"
	 viewBox="0 0 73.8 73.8" style="enable-background:new 0 0 73.8 73.8;" xml:space="preserve">
<style type="text/css">
	.st0{fill:#20201E;}
</style>
<g>
	<polygon class="st0" points="18.4,24.6 18.4,47.5 31.1,36.1 	"/>
	<polygon class="st0" points="53.1,22.8 20.5,22.8 36.8,37.5 	"/>
	<path class="st0" d="M45.1,38.4c1.5-0.7,3.2-1.1,5-1.1c1.8,0,3.5,0.4,5.1,1.1V24.6L42.5,36.1L45.1,38.4z"/>
	<path class="st0" d="M42.6,39.9l-2.2-2l-3.6,3.3L33.2,38L20.5,49.4h17.6C38.1,45.6,39.9,42.2,42.6,39.9z"/>
	<path class="st0" d="M50.1,40.1c-5.1,0-9.3,4.2-9.3,9.3s4.2,9.3,9.3,9.3s9.3-4.2,9.3-9.3S55.3,40.1,50.1,40.1z M49,54.5L43.5,49
		l2-2l3.5,3.5l5.2-5.2l2,2L49,54.5z"/>
</g>
</svg>
