<?xml version="1.0" encoding="utf-8"?>
<!-- Generator: Adobe Illustrator 20.0.0, SVG Export Plug-In . SVG Version: 6.00 Build 0)  -->
<!DOCTYPE svg PUBLIC "-//W3C//DTD SVG 1.1//EN" "http://www.w3.org/Graphics/SVG/1.1/DTD/svg11.dtd">
<svg version="1.1" id="Livello_1" xmlns="http://www.w3.org/2000/svg" xmlns:xlink="http://www.w3.org/1999/xlink" x="0px" y="0px"
	 viewBox="0 0 73.8 73.8" style="enable-background:new 0 0 73.8 73.8;" xml:space="preserve">
<style type="text/css">
	.st0{fill:#0A0A0D;}
</style>
<path class="st0" d="M26.8,22.4c5.6,0,8.6,6,9.8,8.7c1.3-2.7,4.2-8.6,9.9-8.6c3.5,0,7.4,2.3,7.4,7.2c0,5.9-8.2,13.5-17.2,22.4
	c-9.1-8.9-17.2-16.5-17.2-22.4C19.5,25,22.9,22.4,26.8,22.4z M26.8,19C21.4,19,16,22.8,16,29.7c0,8,9.6,16.2,20.7,27.2
	c11.1-11,20.7-19.2,20.7-27.2C57.3,22.7,52,19,46.5,19c-3.8,0-7.7,1.8-9.9,5.6C34.5,20.8,30.6,19,26.8,19z"/>
</svg>
